<mxfile host="Electron" agent="Mozilla/5.0 (Windows NT 10.0; Win64; x64) AppleWebKit/537.36 (KHTML, like Gecko) draw.io/24.7.17 Chrome/128.0.6613.36 Electron/32.0.1 Safari/537.36" version="24.7.17" pages="5">
  <diagram name="第 1 页" id="lW3pzFnWv8qqe5er-Plk">
    <mxGraphModel dx="1430" dy="1225" grid="1" gridSize="10" guides="1" tooltips="1" connect="1" arrows="1" fold="1" page="0" pageScale="1" pageWidth="827" pageHeight="1169" math="1" shadow="0">
      <root>
        <mxCell id="XuZRtJmVkmnxNUICVSYC-0" />
        <mxCell id="XuZRtJmVkmnxNUICVSYC-1" value="Node" style="" parent="XuZRtJmVkmnxNUICVSYC-0" />
        <mxCell id="XuZRtJmVkmnxNUICVSYC-2" style="edgeStyle=orthogonalEdgeStyle;rounded=0;orthogonalLoop=1;jettySize=auto;html=1;fontSize=20;fontFamily=HarmonyOS Sans SC;" edge="1" parent="XuZRtJmVkmnxNUICVSYC-1" source="XuZRtJmVkmnxNUICVSYC-4" target="XuZRtJmVkmnxNUICVSYC-7">
          <mxGeometry relative="1" as="geometry" />
        </mxCell>
        <mxCell id="XuZRtJmVkmnxNUICVSYC-3" value="\(e_{1,2}\)" style="edgeLabel;html=1;align=center;verticalAlign=middle;resizable=0;points=[];fontFamily=HarmonyOS Sans SC;fontSize=20;" vertex="1" connectable="0" parent="XuZRtJmVkmnxNUICVSYC-2">
          <mxGeometry x="-0.0393" y="1" relative="1" as="geometry">
            <mxPoint y="1" as="offset" />
          </mxGeometry>
        </mxCell>
        <mxCell id="XuZRtJmVkmnxNUICVSYC-4" value="" style="ellipse;whiteSpace=wrap;html=1;aspect=fixed;fontFamily=HarmonyOS Sans SC;fontSize=20;" vertex="1" parent="XuZRtJmVkmnxNUICVSYC-1">
          <mxGeometry width="80" height="80" as="geometry" />
        </mxCell>
        <mxCell id="XuZRtJmVkmnxNUICVSYC-5" style="edgeStyle=orthogonalEdgeStyle;shape=connector;rounded=0;orthogonalLoop=1;jettySize=auto;html=1;strokeColor=default;align=center;verticalAlign=middle;fontFamily=HarmonyOS Sans SC;fontSize=20;fontColor=default;labelBackgroundColor=default;endArrow=classic;" edge="1" parent="XuZRtJmVkmnxNUICVSYC-1" source="XuZRtJmVkmnxNUICVSYC-7" target="XuZRtJmVkmnxNUICVSYC-14">
          <mxGeometry relative="1" as="geometry" />
        </mxCell>
        <mxCell id="XuZRtJmVkmnxNUICVSYC-6" value="\(e_{2,3}\)" style="edgeLabel;html=1;align=center;verticalAlign=middle;resizable=0;points=[];fontFamily=HarmonyOS Sans SC;fontSize=20;fontColor=default;labelBackgroundColor=default;" vertex="1" connectable="0" parent="XuZRtJmVkmnxNUICVSYC-5">
          <mxGeometry x="-0.0821" y="-1" relative="1" as="geometry">
            <mxPoint x="3" y="-1" as="offset" />
          </mxGeometry>
        </mxCell>
        <mxCell id="XuZRtJmVkmnxNUICVSYC-7" value="" style="ellipse;whiteSpace=wrap;html=1;aspect=fixed;fontFamily=HarmonyOS Sans SC;fontSize=20;" vertex="1" parent="XuZRtJmVkmnxNUICVSYC-1">
          <mxGeometry x="160" width="80" height="80" as="geometry" />
        </mxCell>
        <mxCell id="XuZRtJmVkmnxNUICVSYC-8" style="shape=connector;rounded=0;orthogonalLoop=1;jettySize=auto;html=1;strokeColor=default;align=center;verticalAlign=middle;fontFamily=HarmonyOS Sans SC;fontSize=20;fontColor=default;labelBackgroundColor=default;endArrow=classic;" edge="1" parent="XuZRtJmVkmnxNUICVSYC-1" source="XuZRtJmVkmnxNUICVSYC-14" target="XuZRtJmVkmnxNUICVSYC-20">
          <mxGeometry relative="1" as="geometry" />
        </mxCell>
        <mxCell id="XuZRtJmVkmnxNUICVSYC-9" value="\(e_{3,4}\)" style="edgeLabel;html=1;align=center;verticalAlign=middle;resizable=0;points=[];fontFamily=HarmonyOS Sans SC;fontSize=20;fontColor=default;labelBackgroundColor=default;" vertex="1" connectable="0" parent="XuZRtJmVkmnxNUICVSYC-8">
          <mxGeometry x="-0.1216" y="2" relative="1" as="geometry">
            <mxPoint x="5" y="-2" as="offset" />
          </mxGeometry>
        </mxCell>
        <mxCell id="XuZRtJmVkmnxNUICVSYC-10" style="edgeStyle=none;shape=connector;rounded=0;orthogonalLoop=1;jettySize=auto;html=1;strokeColor=default;align=center;verticalAlign=middle;fontFamily=HarmonyOS Sans SC;fontSize=20;fontColor=default;labelBackgroundColor=default;endArrow=classic;" edge="1" parent="XuZRtJmVkmnxNUICVSYC-1" source="XuZRtJmVkmnxNUICVSYC-14" target="XuZRtJmVkmnxNUICVSYC-29">
          <mxGeometry relative="1" as="geometry" />
        </mxCell>
        <mxCell id="XuZRtJmVkmnxNUICVSYC-11" value="\(e_{3,6}\)" style="edgeLabel;html=1;align=center;verticalAlign=middle;resizable=0;points=[];fontFamily=HarmonyOS Sans SC;fontSize=20;fontColor=default;labelBackgroundColor=default;" vertex="1" connectable="0" parent="XuZRtJmVkmnxNUICVSYC-10">
          <mxGeometry x="-0.0721" y="1" relative="1" as="geometry">
            <mxPoint x="2" y="3" as="offset" />
          </mxGeometry>
        </mxCell>
        <mxCell id="XuZRtJmVkmnxNUICVSYC-12" style="edgeStyle=none;shape=connector;rounded=0;orthogonalLoop=1;jettySize=auto;html=1;strokeColor=default;align=center;verticalAlign=middle;fontFamily=HarmonyOS Sans SC;fontSize=20;fontColor=default;labelBackgroundColor=default;endArrow=classic;" edge="1" parent="XuZRtJmVkmnxNUICVSYC-1" source="XuZRtJmVkmnxNUICVSYC-14" target="XuZRtJmVkmnxNUICVSYC-17">
          <mxGeometry relative="1" as="geometry" />
        </mxCell>
        <mxCell id="XuZRtJmVkmnxNUICVSYC-13" value="\(e_{3,5}\)" style="edgeLabel;html=1;align=center;verticalAlign=middle;resizable=0;points=[];fontFamily=HarmonyOS Sans SC;fontSize=20;fontColor=default;labelBackgroundColor=default;" vertex="1" connectable="0" parent="XuZRtJmVkmnxNUICVSYC-12">
          <mxGeometry x="-0.0054" relative="1" as="geometry">
            <mxPoint x="1" as="offset" />
          </mxGeometry>
        </mxCell>
        <mxCell id="XuZRtJmVkmnxNUICVSYC-14" value="" style="ellipse;whiteSpace=wrap;html=1;aspect=fixed;fontFamily=HarmonyOS Sans SC;fontSize=20;" vertex="1" parent="XuZRtJmVkmnxNUICVSYC-1">
          <mxGeometry x="320" width="80" height="80" as="geometry" />
        </mxCell>
        <mxCell id="XuZRtJmVkmnxNUICVSYC-15" style="edgeStyle=none;shape=connector;rounded=0;orthogonalLoop=1;jettySize=auto;html=1;strokeColor=default;align=center;verticalAlign=middle;fontFamily=HarmonyOS Sans SC;fontSize=20;fontColor=default;labelBackgroundColor=default;endArrow=classic;" edge="1" parent="XuZRtJmVkmnxNUICVSYC-1" source="XuZRtJmVkmnxNUICVSYC-17" target="XuZRtJmVkmnxNUICVSYC-32">
          <mxGeometry relative="1" as="geometry" />
        </mxCell>
        <mxCell id="XuZRtJmVkmnxNUICVSYC-16" value="\(e_{5,9}\)" style="edgeLabel;html=1;align=center;verticalAlign=middle;resizable=0;points=[];fontFamily=HarmonyOS Sans SC;fontSize=20;fontColor=default;labelBackgroundColor=default;" vertex="1" connectable="0" parent="XuZRtJmVkmnxNUICVSYC-15">
          <mxGeometry x="-0.0125" y="1" relative="1" as="geometry">
            <mxPoint x="1" y="1" as="offset" />
          </mxGeometry>
        </mxCell>
        <mxCell id="XuZRtJmVkmnxNUICVSYC-17" value="" style="ellipse;whiteSpace=wrap;html=1;aspect=fixed;fontFamily=HarmonyOS Sans SC;fontSize=20;" vertex="1" parent="XuZRtJmVkmnxNUICVSYC-1">
          <mxGeometry x="560" width="80" height="80" as="geometry" />
        </mxCell>
        <mxCell id="XuZRtJmVkmnxNUICVSYC-18" style="edgeStyle=none;shape=connector;rounded=0;orthogonalLoop=1;jettySize=auto;html=1;strokeColor=default;align=center;verticalAlign=middle;fontFamily=HarmonyOS Sans SC;fontSize=20;fontColor=default;labelBackgroundColor=default;endArrow=classic;" edge="1" parent="XuZRtJmVkmnxNUICVSYC-1" source="XuZRtJmVkmnxNUICVSYC-20" target="XuZRtJmVkmnxNUICVSYC-23">
          <mxGeometry relative="1" as="geometry" />
        </mxCell>
        <mxCell id="XuZRtJmVkmnxNUICVSYC-19" value="\(e_{4,7}\)" style="edgeLabel;html=1;align=center;verticalAlign=middle;resizable=0;points=[];fontFamily=HarmonyOS Sans SC;fontSize=20;fontColor=default;labelBackgroundColor=default;" vertex="1" connectable="0" parent="XuZRtJmVkmnxNUICVSYC-18">
          <mxGeometry x="-0.0125" y="1" relative="1" as="geometry">
            <mxPoint x="1" y="1" as="offset" />
          </mxGeometry>
        </mxCell>
        <mxCell id="XuZRtJmVkmnxNUICVSYC-20" value="" style="ellipse;whiteSpace=wrap;html=1;aspect=fixed;fontFamily=HarmonyOS Sans SC;fontSize=20;" vertex="1" parent="XuZRtJmVkmnxNUICVSYC-1">
          <mxGeometry x="460" y="-80" width="80" height="80" as="geometry" />
        </mxCell>
        <mxCell id="XuZRtJmVkmnxNUICVSYC-21" style="edgeStyle=none;shape=connector;rounded=0;orthogonalLoop=1;jettySize=auto;html=1;strokeColor=default;align=center;verticalAlign=middle;fontFamily=HarmonyOS Sans SC;fontSize=20;fontColor=default;labelBackgroundColor=default;endArrow=classic;" edge="1" parent="XuZRtJmVkmnxNUICVSYC-1" source="XuZRtJmVkmnxNUICVSYC-23" target="XuZRtJmVkmnxNUICVSYC-32">
          <mxGeometry relative="1" as="geometry" />
        </mxCell>
        <mxCell id="XuZRtJmVkmnxNUICVSYC-22" value="\(e_{7,9}\)" style="edgeLabel;html=1;align=center;verticalAlign=middle;resizable=0;points=[];fontFamily=HarmonyOS Sans SC;fontSize=20;fontColor=default;labelBackgroundColor=default;" vertex="1" connectable="0" parent="XuZRtJmVkmnxNUICVSYC-21">
          <mxGeometry x="-0.045" y="1" relative="1" as="geometry">
            <mxPoint as="offset" />
          </mxGeometry>
        </mxCell>
        <mxCell id="XuZRtJmVkmnxNUICVSYC-23" value="" style="ellipse;whiteSpace=wrap;html=1;aspect=fixed;fontFamily=HarmonyOS Sans SC;fontSize=20;" vertex="1" parent="XuZRtJmVkmnxNUICVSYC-1">
          <mxGeometry x="660" y="-80" width="80" height="80" as="geometry" />
        </mxCell>
        <mxCell id="XuZRtJmVkmnxNUICVSYC-24" style="edgeStyle=none;shape=connector;rounded=0;orthogonalLoop=1;jettySize=auto;html=1;strokeColor=default;align=center;verticalAlign=middle;fontFamily=HarmonyOS Sans SC;fontSize=20;fontColor=default;labelBackgroundColor=default;endArrow=classic;" edge="1" parent="XuZRtJmVkmnxNUICVSYC-1" source="XuZRtJmVkmnxNUICVSYC-26" target="XuZRtJmVkmnxNUICVSYC-32">
          <mxGeometry relative="1" as="geometry" />
        </mxCell>
        <mxCell id="XuZRtJmVkmnxNUICVSYC-25" value="\(e_{8,9}\)" style="edgeLabel;html=1;align=center;verticalAlign=middle;resizable=0;points=[];fontFamily=HarmonyOS Sans SC;fontSize=20;fontColor=default;labelBackgroundColor=default;" vertex="1" connectable="0" parent="XuZRtJmVkmnxNUICVSYC-24">
          <mxGeometry x="-0.0045" y="1" relative="1" as="geometry">
            <mxPoint as="offset" />
          </mxGeometry>
        </mxCell>
        <mxCell id="XuZRtJmVkmnxNUICVSYC-26" value="" style="ellipse;whiteSpace=wrap;html=1;aspect=fixed;fontFamily=HarmonyOS Sans SC;fontSize=20;" vertex="1" parent="XuZRtJmVkmnxNUICVSYC-1">
          <mxGeometry x="660" y="80" width="80" height="80" as="geometry" />
        </mxCell>
        <mxCell id="XuZRtJmVkmnxNUICVSYC-27" style="edgeStyle=none;shape=connector;rounded=0;orthogonalLoop=1;jettySize=auto;html=1;strokeColor=default;align=center;verticalAlign=middle;fontFamily=HarmonyOS Sans SC;fontSize=20;fontColor=default;labelBackgroundColor=default;endArrow=classic;" edge="1" parent="XuZRtJmVkmnxNUICVSYC-1" source="XuZRtJmVkmnxNUICVSYC-29" target="XuZRtJmVkmnxNUICVSYC-26">
          <mxGeometry relative="1" as="geometry" />
        </mxCell>
        <mxCell id="XuZRtJmVkmnxNUICVSYC-28" value="\(e_{6,8}\)" style="edgeLabel;html=1;align=center;verticalAlign=middle;resizable=0;points=[];fontFamily=HarmonyOS Sans SC;fontSize=20;fontColor=default;labelBackgroundColor=default;" vertex="1" connectable="0" parent="XuZRtJmVkmnxNUICVSYC-27">
          <mxGeometry x="-0.0054" relative="1" as="geometry">
            <mxPoint x="1" as="offset" />
          </mxGeometry>
        </mxCell>
        <mxCell id="XuZRtJmVkmnxNUICVSYC-29" value="" style="ellipse;whiteSpace=wrap;html=1;aspect=fixed;fontFamily=HarmonyOS Sans SC;fontSize=20;" vertex="1" parent="XuZRtJmVkmnxNUICVSYC-1">
          <mxGeometry x="460" y="80" width="80" height="80" as="geometry" />
        </mxCell>
        <mxCell id="XuZRtJmVkmnxNUICVSYC-30" style="edgeStyle=none;shape=connector;rounded=0;orthogonalLoop=1;jettySize=auto;html=1;strokeColor=default;align=center;verticalAlign=middle;fontFamily=HarmonyOS Sans SC;fontSize=20;fontColor=default;labelBackgroundColor=default;endArrow=classic;" edge="1" parent="XuZRtJmVkmnxNUICVSYC-1" source="XuZRtJmVkmnxNUICVSYC-32" target="XuZRtJmVkmnxNUICVSYC-33">
          <mxGeometry relative="1" as="geometry" />
        </mxCell>
        <mxCell id="XuZRtJmVkmnxNUICVSYC-31" value="\(e_{9,10}\)" style="edgeLabel;html=1;align=center;verticalAlign=middle;resizable=0;points=[];fontFamily=HarmonyOS Sans SC;fontSize=20;fontColor=default;labelBackgroundColor=default;" vertex="1" connectable="0" parent="XuZRtJmVkmnxNUICVSYC-30">
          <mxGeometry x="-0.0393" relative="1" as="geometry">
            <mxPoint as="offset" />
          </mxGeometry>
        </mxCell>
        <mxCell id="XuZRtJmVkmnxNUICVSYC-32" value="" style="ellipse;whiteSpace=wrap;html=1;aspect=fixed;fontFamily=HarmonyOS Sans SC;fontSize=20;" vertex="1" parent="XuZRtJmVkmnxNUICVSYC-1">
          <mxGeometry x="800" width="80" height="80" as="geometry" />
        </mxCell>
        <mxCell id="XuZRtJmVkmnxNUICVSYC-33" value="" style="ellipse;whiteSpace=wrap;html=1;aspect=fixed;fontFamily=HarmonyOS Sans SC;fontSize=20;" vertex="1" parent="XuZRtJmVkmnxNUICVSYC-1">
          <mxGeometry x="960" width="80" height="80" as="geometry" />
        </mxCell>
        <mxCell id="XuZRtJmVkmnxNUICVSYC-34" value="Text" style="" parent="XuZRtJmVkmnxNUICVSYC-0" />
        <mxCell id="XuZRtJmVkmnxNUICVSYC-35" value="\(f_1\)&lt;div&gt;&lt;br&gt;&lt;/div&gt;" style="text;html=1;align=center;verticalAlign=middle;whiteSpace=wrap;rounded=0;fontFamily=HarmonyOS Sans SC;fontSize=20;fillColor=default;" vertex="1" parent="XuZRtJmVkmnxNUICVSYC-34">
          <mxGeometry x="25" y="10" width="30" height="60" as="geometry" />
        </mxCell>
        <mxCell id="XuZRtJmVkmnxNUICVSYC-36" value="\(f_2\)&lt;div&gt;&lt;br&gt;&lt;/div&gt;" style="text;html=1;align=center;verticalAlign=middle;whiteSpace=wrap;rounded=0;fontFamily=HarmonyOS Sans SC;fontSize=20;fillColor=default;" vertex="1" parent="XuZRtJmVkmnxNUICVSYC-34">
          <mxGeometry x="185" y="10" width="30" height="60" as="geometry" />
        </mxCell>
        <mxCell id="XuZRtJmVkmnxNUICVSYC-37" value="\(f_3\)&lt;div&gt;&lt;br&gt;&lt;/div&gt;" style="text;html=1;align=center;verticalAlign=middle;whiteSpace=wrap;rounded=0;fontFamily=HarmonyOS Sans SC;fontSize=20;fillColor=default;" vertex="1" parent="XuZRtJmVkmnxNUICVSYC-34">
          <mxGeometry x="345" y="10" width="30" height="60" as="geometry" />
        </mxCell>
        <mxCell id="XuZRtJmVkmnxNUICVSYC-38" value="\(f_4\)&lt;div&gt;&lt;br&gt;&lt;/div&gt;" style="text;html=1;align=center;verticalAlign=middle;whiteSpace=wrap;rounded=0;fontFamily=HarmonyOS Sans SC;fontSize=20;fillColor=default;" vertex="1" parent="XuZRtJmVkmnxNUICVSYC-34">
          <mxGeometry x="485" y="-70" width="30" height="60" as="geometry" />
        </mxCell>
        <mxCell id="XuZRtJmVkmnxNUICVSYC-39" value="\(f_6\)&lt;div&gt;&lt;br&gt;&lt;/div&gt;" style="text;html=1;align=center;verticalAlign=middle;whiteSpace=wrap;rounded=0;fontFamily=HarmonyOS Sans SC;fontSize=20;fillColor=default;" vertex="1" parent="XuZRtJmVkmnxNUICVSYC-34">
          <mxGeometry x="485" y="90" width="30" height="60" as="geometry" />
        </mxCell>
        <mxCell id="XuZRtJmVkmnxNUICVSYC-40" value="\(f_5\)&lt;div&gt;&lt;br&gt;&lt;/div&gt;" style="text;html=1;align=center;verticalAlign=middle;whiteSpace=wrap;rounded=0;fontFamily=HarmonyOS Sans SC;fontSize=20;fillColor=default;" vertex="1" parent="XuZRtJmVkmnxNUICVSYC-34">
          <mxGeometry x="585" y="10" width="30" height="60" as="geometry" />
        </mxCell>
        <mxCell id="XuZRtJmVkmnxNUICVSYC-41" value="\(f_7\)&lt;div&gt;&lt;br&gt;&lt;/div&gt;" style="text;html=1;align=center;verticalAlign=middle;whiteSpace=wrap;rounded=0;fontFamily=HarmonyOS Sans SC;fontSize=20;fillColor=default;" vertex="1" parent="XuZRtJmVkmnxNUICVSYC-34">
          <mxGeometry x="685" y="-70" width="30" height="60" as="geometry" />
        </mxCell>
        <mxCell id="XuZRtJmVkmnxNUICVSYC-42" value="\(f_8\)&lt;div&gt;&lt;br&gt;&lt;/div&gt;" style="text;html=1;align=center;verticalAlign=middle;whiteSpace=wrap;rounded=0;fontFamily=HarmonyOS Sans SC;fontSize=20;fillColor=default;" vertex="1" parent="XuZRtJmVkmnxNUICVSYC-34">
          <mxGeometry x="685" y="90" width="30" height="60" as="geometry" />
        </mxCell>
        <mxCell id="XuZRtJmVkmnxNUICVSYC-43" value="\(f_9\)&lt;div&gt;&lt;br&gt;&lt;/div&gt;" style="text;html=1;align=center;verticalAlign=middle;whiteSpace=wrap;rounded=0;fontFamily=HarmonyOS Sans SC;fontSize=20;fillColor=default;" vertex="1" parent="XuZRtJmVkmnxNUICVSYC-34">
          <mxGeometry x="825" y="10" width="30" height="60" as="geometry" />
        </mxCell>
        <mxCell id="XuZRtJmVkmnxNUICVSYC-44" value="\(f_{10}\)&lt;div&gt;&lt;br&gt;&lt;/div&gt;" style="text;html=1;align=center;verticalAlign=middle;whiteSpace=wrap;rounded=0;fontFamily=HarmonyOS Sans SC;fontSize=20;fillColor=default;" vertex="1" parent="XuZRtJmVkmnxNUICVSYC-34">
          <mxGeometry x="985" y="10" width="30" height="60" as="geometry" />
        </mxCell>
      </root>
    </mxGraphModel>
  </diagram>
  <diagram name="第 2 页" id="rEjroRCmNl6KvNItkcuF">
    <mxGraphModel dx="1430" dy="1225" grid="1" gridSize="10" guides="1" tooltips="1" connect="1" arrows="1" fold="1" page="0" pageScale="1" pageWidth="827" pageHeight="1169" math="1" shadow="0">
      <root>
        <mxCell id="0" />
        <mxCell id="1" value="Node" style="" parent="0" />
        <mxCell id="PrEBM-IPwD43TtUHFKZb-12" style="edgeStyle=orthogonalEdgeStyle;rounded=0;orthogonalLoop=1;jettySize=auto;html=1;fontSize=20;fontFamily=HarmonyOS Sans SC;" edge="1" parent="1" source="PrEBM-IPwD43TtUHFKZb-1" target="PrEBM-IPwD43TtUHFKZb-3">
          <mxGeometry relative="1" as="geometry" />
        </mxCell>
        <mxCell id="PrEBM-IPwD43TtUHFKZb-13" value="\(e_{1,2}\)" style="edgeLabel;html=1;align=center;verticalAlign=middle;resizable=0;points=[];fontFamily=HarmonyOS Sans SC;fontSize=20;" vertex="1" connectable="0" parent="PrEBM-IPwD43TtUHFKZb-12">
          <mxGeometry x="-0.0393" y="1" relative="1" as="geometry">
            <mxPoint y="1" as="offset" />
          </mxGeometry>
        </mxCell>
        <mxCell id="PrEBM-IPwD43TtUHFKZb-1" value="" style="ellipse;whiteSpace=wrap;html=1;aspect=fixed;fontFamily=HarmonyOS Sans SC;fontSize=20;" vertex="1" parent="1">
          <mxGeometry width="80" height="80" as="geometry" />
        </mxCell>
        <mxCell id="PrEBM-IPwD43TtUHFKZb-15" style="edgeStyle=orthogonalEdgeStyle;shape=connector;rounded=0;orthogonalLoop=1;jettySize=auto;html=1;strokeColor=default;align=center;verticalAlign=middle;fontFamily=HarmonyOS Sans SC;fontSize=20;fontColor=default;labelBackgroundColor=default;endArrow=classic;" edge="1" parent="1" source="PrEBM-IPwD43TtUHFKZb-3" target="PrEBM-IPwD43TtUHFKZb-5">
          <mxGeometry relative="1" as="geometry" />
        </mxCell>
        <mxCell id="PrEBM-IPwD43TtUHFKZb-16" value="\(e_{2,3}\)" style="edgeLabel;html=1;align=center;verticalAlign=middle;resizable=0;points=[];fontFamily=HarmonyOS Sans SC;fontSize=20;fontColor=default;labelBackgroundColor=default;" vertex="1" connectable="0" parent="PrEBM-IPwD43TtUHFKZb-15">
          <mxGeometry x="-0.0821" y="-1" relative="1" as="geometry">
            <mxPoint x="3" y="-1" as="offset" />
          </mxGeometry>
        </mxCell>
        <mxCell id="PrEBM-IPwD43TtUHFKZb-3" value="" style="ellipse;whiteSpace=wrap;html=1;aspect=fixed;fontFamily=HarmonyOS Sans SC;fontSize=20;" vertex="1" parent="1">
          <mxGeometry x="160" width="80" height="80" as="geometry" />
        </mxCell>
        <mxCell id="PrEBM-IPwD43TtUHFKZb-24" style="shape=connector;rounded=0;orthogonalLoop=1;jettySize=auto;html=1;strokeColor=default;align=center;verticalAlign=middle;fontFamily=HarmonyOS Sans SC;fontSize=20;fontColor=default;labelBackgroundColor=default;endArrow=classic;" edge="1" parent="1" source="PrEBM-IPwD43TtUHFKZb-5" target="PrEBM-IPwD43TtUHFKZb-18">
          <mxGeometry relative="1" as="geometry" />
        </mxCell>
        <mxCell id="PrEBM-IPwD43TtUHFKZb-25" value="\(e_{3,4}\)" style="edgeLabel;html=1;align=center;verticalAlign=middle;resizable=0;points=[];fontFamily=HarmonyOS Sans SC;fontSize=20;fontColor=default;labelBackgroundColor=default;" vertex="1" connectable="0" parent="PrEBM-IPwD43TtUHFKZb-24">
          <mxGeometry x="-0.1216" y="2" relative="1" as="geometry">
            <mxPoint x="5" y="-2" as="offset" />
          </mxGeometry>
        </mxCell>
        <mxCell id="PrEBM-IPwD43TtUHFKZb-26" style="edgeStyle=none;shape=connector;rounded=0;orthogonalLoop=1;jettySize=auto;html=1;strokeColor=default;align=center;verticalAlign=middle;fontFamily=HarmonyOS Sans SC;fontSize=20;fontColor=default;labelBackgroundColor=default;endArrow=classic;" edge="1" parent="1" source="PrEBM-IPwD43TtUHFKZb-5" target="PrEBM-IPwD43TtUHFKZb-21">
          <mxGeometry relative="1" as="geometry" />
        </mxCell>
        <mxCell id="PrEBM-IPwD43TtUHFKZb-27" value="\(e_{3,6}\)" style="edgeLabel;html=1;align=center;verticalAlign=middle;resizable=0;points=[];fontFamily=HarmonyOS Sans SC;fontSize=20;fontColor=default;labelBackgroundColor=default;" vertex="1" connectable="0" parent="PrEBM-IPwD43TtUHFKZb-26">
          <mxGeometry x="-0.0721" y="1" relative="1" as="geometry">
            <mxPoint x="2" y="3" as="offset" />
          </mxGeometry>
        </mxCell>
        <mxCell id="PrEBM-IPwD43TtUHFKZb-28" style="edgeStyle=none;shape=connector;rounded=0;orthogonalLoop=1;jettySize=auto;html=1;strokeColor=default;align=center;verticalAlign=middle;fontFamily=HarmonyOS Sans SC;fontSize=20;fontColor=default;labelBackgroundColor=default;endArrow=classic;" edge="1" parent="1" source="PrEBM-IPwD43TtUHFKZb-5" target="PrEBM-IPwD43TtUHFKZb-17">
          <mxGeometry relative="1" as="geometry" />
        </mxCell>
        <mxCell id="PrEBM-IPwD43TtUHFKZb-29" value="\(e_{3,5}\)" style="edgeLabel;html=1;align=center;verticalAlign=middle;resizable=0;points=[];fontFamily=HarmonyOS Sans SC;fontSize=20;fontColor=default;labelBackgroundColor=default;" vertex="1" connectable="0" parent="PrEBM-IPwD43TtUHFKZb-28">
          <mxGeometry x="-0.0054" relative="1" as="geometry">
            <mxPoint x="1" as="offset" />
          </mxGeometry>
        </mxCell>
        <mxCell id="PrEBM-IPwD43TtUHFKZb-5" value="" style="ellipse;whiteSpace=wrap;html=1;aspect=fixed;fontFamily=HarmonyOS Sans SC;fontSize=20;" vertex="1" parent="1">
          <mxGeometry x="320" width="80" height="80" as="geometry" />
        </mxCell>
        <mxCell id="PrEBM-IPwD43TtUHFKZb-34" style="edgeStyle=none;shape=connector;rounded=0;orthogonalLoop=1;jettySize=auto;html=1;strokeColor=default;align=center;verticalAlign=middle;fontFamily=HarmonyOS Sans SC;fontSize=20;fontColor=default;labelBackgroundColor=default;endArrow=classic;" edge="1" parent="1" source="PrEBM-IPwD43TtUHFKZb-17" target="PrEBM-IPwD43TtUHFKZb-22">
          <mxGeometry relative="1" as="geometry" />
        </mxCell>
        <mxCell id="PrEBM-IPwD43TtUHFKZb-35" value="\(e_{5,9}\)" style="edgeLabel;html=1;align=center;verticalAlign=middle;resizable=0;points=[];fontFamily=HarmonyOS Sans SC;fontSize=20;fontColor=default;labelBackgroundColor=default;" vertex="1" connectable="0" parent="PrEBM-IPwD43TtUHFKZb-34">
          <mxGeometry x="-0.0125" y="1" relative="1" as="geometry">
            <mxPoint x="1" y="1" as="offset" />
          </mxGeometry>
        </mxCell>
        <mxCell id="PrEBM-IPwD43TtUHFKZb-17" value="" style="ellipse;whiteSpace=wrap;html=1;aspect=fixed;fontFamily=HarmonyOS Sans SC;fontSize=20;" vertex="1" parent="1">
          <mxGeometry x="560" width="80" height="80" as="geometry" />
        </mxCell>
        <mxCell id="PrEBM-IPwD43TtUHFKZb-30" style="edgeStyle=none;shape=connector;rounded=0;orthogonalLoop=1;jettySize=auto;html=1;strokeColor=default;align=center;verticalAlign=middle;fontFamily=HarmonyOS Sans SC;fontSize=20;fontColor=default;labelBackgroundColor=default;endArrow=classic;" edge="1" parent="1" source="PrEBM-IPwD43TtUHFKZb-18" target="PrEBM-IPwD43TtUHFKZb-19">
          <mxGeometry relative="1" as="geometry" />
        </mxCell>
        <mxCell id="PrEBM-IPwD43TtUHFKZb-31" value="\(e_{4,7}\)" style="edgeLabel;html=1;align=center;verticalAlign=middle;resizable=0;points=[];fontFamily=HarmonyOS Sans SC;fontSize=20;fontColor=default;labelBackgroundColor=default;" vertex="1" connectable="0" parent="PrEBM-IPwD43TtUHFKZb-30">
          <mxGeometry x="-0.0125" y="1" relative="1" as="geometry">
            <mxPoint x="1" y="1" as="offset" />
          </mxGeometry>
        </mxCell>
        <mxCell id="PrEBM-IPwD43TtUHFKZb-18" value="" style="ellipse;whiteSpace=wrap;html=1;aspect=fixed;fontFamily=HarmonyOS Sans SC;fontSize=20;" vertex="1" parent="1">
          <mxGeometry x="460" y="-80" width="80" height="80" as="geometry" />
        </mxCell>
        <mxCell id="PrEBM-IPwD43TtUHFKZb-36" style="edgeStyle=none;shape=connector;rounded=0;orthogonalLoop=1;jettySize=auto;html=1;strokeColor=default;align=center;verticalAlign=middle;fontFamily=HarmonyOS Sans SC;fontSize=20;fontColor=default;labelBackgroundColor=default;endArrow=classic;" edge="1" parent="1" source="PrEBM-IPwD43TtUHFKZb-19" target="PrEBM-IPwD43TtUHFKZb-22">
          <mxGeometry relative="1" as="geometry" />
        </mxCell>
        <mxCell id="PrEBM-IPwD43TtUHFKZb-37" value="\(e_{7,9}\)" style="edgeLabel;html=1;align=center;verticalAlign=middle;resizable=0;points=[];fontFamily=HarmonyOS Sans SC;fontSize=20;fontColor=default;labelBackgroundColor=default;" vertex="1" connectable="0" parent="PrEBM-IPwD43TtUHFKZb-36">
          <mxGeometry x="-0.045" y="1" relative="1" as="geometry">
            <mxPoint as="offset" />
          </mxGeometry>
        </mxCell>
        <mxCell id="PrEBM-IPwD43TtUHFKZb-19" value="" style="ellipse;whiteSpace=wrap;html=1;aspect=fixed;fontFamily=HarmonyOS Sans SC;fontSize=20;" vertex="1" parent="1">
          <mxGeometry x="660" y="-80" width="80" height="80" as="geometry" />
        </mxCell>
        <mxCell id="PrEBM-IPwD43TtUHFKZb-38" style="edgeStyle=none;shape=connector;rounded=0;orthogonalLoop=1;jettySize=auto;html=1;strokeColor=default;align=center;verticalAlign=middle;fontFamily=HarmonyOS Sans SC;fontSize=20;fontColor=default;labelBackgroundColor=default;endArrow=classic;" edge="1" parent="1" source="PrEBM-IPwD43TtUHFKZb-20" target="PrEBM-IPwD43TtUHFKZb-22">
          <mxGeometry relative="1" as="geometry" />
        </mxCell>
        <mxCell id="PrEBM-IPwD43TtUHFKZb-39" value="\(e_{8,9}\)" style="edgeLabel;html=1;align=center;verticalAlign=middle;resizable=0;points=[];fontFamily=HarmonyOS Sans SC;fontSize=20;fontColor=default;labelBackgroundColor=default;" vertex="1" connectable="0" parent="PrEBM-IPwD43TtUHFKZb-38">
          <mxGeometry x="-0.0045" y="1" relative="1" as="geometry">
            <mxPoint as="offset" />
          </mxGeometry>
        </mxCell>
        <mxCell id="PrEBM-IPwD43TtUHFKZb-20" value="" style="ellipse;whiteSpace=wrap;html=1;aspect=fixed;fontFamily=HarmonyOS Sans SC;fontSize=20;" vertex="1" parent="1">
          <mxGeometry x="660" y="80" width="80" height="80" as="geometry" />
        </mxCell>
        <mxCell id="PrEBM-IPwD43TtUHFKZb-32" style="edgeStyle=none;shape=connector;rounded=0;orthogonalLoop=1;jettySize=auto;html=1;strokeColor=default;align=center;verticalAlign=middle;fontFamily=HarmonyOS Sans SC;fontSize=20;fontColor=default;labelBackgroundColor=default;endArrow=classic;" edge="1" parent="1" source="PrEBM-IPwD43TtUHFKZb-21" target="PrEBM-IPwD43TtUHFKZb-20">
          <mxGeometry relative="1" as="geometry" />
        </mxCell>
        <mxCell id="PrEBM-IPwD43TtUHFKZb-33" value="\(e_{6,8}\)" style="edgeLabel;html=1;align=center;verticalAlign=middle;resizable=0;points=[];fontFamily=HarmonyOS Sans SC;fontSize=20;fontColor=default;labelBackgroundColor=default;" vertex="1" connectable="0" parent="PrEBM-IPwD43TtUHFKZb-32">
          <mxGeometry x="-0.0054" relative="1" as="geometry">
            <mxPoint x="1" as="offset" />
          </mxGeometry>
        </mxCell>
        <mxCell id="PrEBM-IPwD43TtUHFKZb-21" value="" style="ellipse;whiteSpace=wrap;html=1;aspect=fixed;fontFamily=HarmonyOS Sans SC;fontSize=20;" vertex="1" parent="1">
          <mxGeometry x="460" y="80" width="80" height="80" as="geometry" />
        </mxCell>
        <mxCell id="PrEBM-IPwD43TtUHFKZb-40" style="edgeStyle=none;shape=connector;rounded=0;orthogonalLoop=1;jettySize=auto;html=1;strokeColor=default;align=center;verticalAlign=middle;fontFamily=HarmonyOS Sans SC;fontSize=20;fontColor=default;labelBackgroundColor=default;endArrow=classic;" edge="1" parent="1" source="PrEBM-IPwD43TtUHFKZb-22" target="PrEBM-IPwD43TtUHFKZb-23">
          <mxGeometry relative="1" as="geometry" />
        </mxCell>
        <mxCell id="PrEBM-IPwD43TtUHFKZb-41" value="\(e_{9,10}\)" style="edgeLabel;html=1;align=center;verticalAlign=middle;resizable=0;points=[];fontFamily=HarmonyOS Sans SC;fontSize=20;fontColor=default;labelBackgroundColor=default;" vertex="1" connectable="0" parent="PrEBM-IPwD43TtUHFKZb-40">
          <mxGeometry x="-0.0393" relative="1" as="geometry">
            <mxPoint as="offset" />
          </mxGeometry>
        </mxCell>
        <mxCell id="PrEBM-IPwD43TtUHFKZb-22" value="" style="ellipse;whiteSpace=wrap;html=1;aspect=fixed;fontFamily=HarmonyOS Sans SC;fontSize=20;" vertex="1" parent="1">
          <mxGeometry x="800" width="80" height="80" as="geometry" />
        </mxCell>
        <mxCell id="PrEBM-IPwD43TtUHFKZb-23" value="" style="ellipse;whiteSpace=wrap;html=1;aspect=fixed;fontFamily=HarmonyOS Sans SC;fontSize=20;" vertex="1" parent="1">
          <mxGeometry x="960" width="80" height="80" as="geometry" />
        </mxCell>
        <mxCell id="PrEBM-IPwD43TtUHFKZb-8" value="Text" style="" parent="0" />
        <mxCell id="PrEBM-IPwD43TtUHFKZb-9" value="\(f_1\)&lt;div&gt;\(0\)&lt;/div&gt;" style="text;html=1;align=center;verticalAlign=middle;whiteSpace=wrap;rounded=0;fontFamily=HarmonyOS Sans SC;fontSize=20;fillColor=default;" vertex="1" parent="PrEBM-IPwD43TtUHFKZb-8">
          <mxGeometry x="25" y="10" width="30" height="60" as="geometry" />
        </mxCell>
        <mxCell id="PrEBM-IPwD43TtUHFKZb-10" value="\(f_2\)&lt;div&gt;\(1\)&lt;/div&gt;" style="text;html=1;align=center;verticalAlign=middle;whiteSpace=wrap;rounded=0;fontFamily=HarmonyOS Sans SC;fontSize=20;fillColor=default;" vertex="1" parent="PrEBM-IPwD43TtUHFKZb-8">
          <mxGeometry x="185" y="10" width="30" height="60" as="geometry" />
        </mxCell>
        <mxCell id="PrEBM-IPwD43TtUHFKZb-11" value="\(f_3\)&lt;div&gt;\(2\)&lt;/div&gt;" style="text;html=1;align=center;verticalAlign=middle;whiteSpace=wrap;rounded=0;fontFamily=HarmonyOS Sans SC;fontSize=20;fillColor=default;" vertex="1" parent="PrEBM-IPwD43TtUHFKZb-8">
          <mxGeometry x="345" y="10" width="30" height="60" as="geometry" />
        </mxCell>
        <mxCell id="PrEBM-IPwD43TtUHFKZb-42" value="\(f_4\)&lt;div&gt;\(3\)&lt;/div&gt;" style="text;html=1;align=center;verticalAlign=middle;whiteSpace=wrap;rounded=0;fontFamily=HarmonyOS Sans SC;fontSize=20;fillColor=default;" vertex="1" parent="PrEBM-IPwD43TtUHFKZb-8">
          <mxGeometry x="485" y="-70" width="30" height="60" as="geometry" />
        </mxCell>
        <mxCell id="PrEBM-IPwD43TtUHFKZb-43" value="\(f_6\)&lt;div&gt;\(4\)&lt;/div&gt;" style="text;html=1;align=center;verticalAlign=middle;whiteSpace=wrap;rounded=0;fontFamily=HarmonyOS Sans SC;fontSize=20;fillColor=default;" vertex="1" parent="PrEBM-IPwD43TtUHFKZb-8">
          <mxGeometry x="485" y="90" width="30" height="60" as="geometry" />
        </mxCell>
        <mxCell id="PrEBM-IPwD43TtUHFKZb-44" value="\(f_5\)&lt;div&gt;\(5\)&lt;/div&gt;" style="text;html=1;align=center;verticalAlign=middle;whiteSpace=wrap;rounded=0;fontFamily=HarmonyOS Sans SC;fontSize=20;fillColor=default;" vertex="1" parent="PrEBM-IPwD43TtUHFKZb-8">
          <mxGeometry x="585" y="10" width="30" height="60" as="geometry" />
        </mxCell>
        <mxCell id="PrEBM-IPwD43TtUHFKZb-45" value="\(f_7\)&lt;div&gt;\(7\)&lt;/div&gt;" style="text;html=1;align=center;verticalAlign=middle;whiteSpace=wrap;rounded=0;fontFamily=HarmonyOS Sans SC;fontSize=20;fillColor=default;" vertex="1" parent="PrEBM-IPwD43TtUHFKZb-8">
          <mxGeometry x="685" y="-70" width="30" height="60" as="geometry" />
        </mxCell>
        <mxCell id="PrEBM-IPwD43TtUHFKZb-46" value="\(f_8\)&lt;div&gt;\(6\)&lt;/div&gt;" style="text;html=1;align=center;verticalAlign=middle;whiteSpace=wrap;rounded=0;fontFamily=HarmonyOS Sans SC;fontSize=20;fillColor=default;" vertex="1" parent="PrEBM-IPwD43TtUHFKZb-8">
          <mxGeometry x="685" y="90" width="30" height="60" as="geometry" />
        </mxCell>
        <mxCell id="PrEBM-IPwD43TtUHFKZb-47" value="\(f_9\)&lt;div&gt;\(8\)&lt;/div&gt;" style="text;html=1;align=center;verticalAlign=middle;whiteSpace=wrap;rounded=0;fontFamily=HarmonyOS Sans SC;fontSize=20;fillColor=default;" vertex="1" parent="PrEBM-IPwD43TtUHFKZb-8">
          <mxGeometry x="825" y="10" width="30" height="60" as="geometry" />
        </mxCell>
        <mxCell id="PrEBM-IPwD43TtUHFKZb-48" value="\(f_{10}\)&lt;div&gt;\(10\)&lt;/div&gt;" style="text;html=1;align=center;verticalAlign=middle;whiteSpace=wrap;rounded=0;fontFamily=HarmonyOS Sans SC;fontSize=20;fillColor=default;" vertex="1" parent="PrEBM-IPwD43TtUHFKZb-8">
          <mxGeometry x="985" y="10" width="30" height="60" as="geometry" />
        </mxCell>
      </root>
    </mxGraphModel>
  </diagram>
  <diagram name="第 3 页" id="kiz5UFnqaEBK3cmwQlrY">
    <mxGraphModel dx="2074" dy="1596" grid="1" gridSize="10" guides="1" tooltips="1" connect="1" arrows="1" fold="1" page="0" pageScale="1" pageWidth="827" pageHeight="1169" math="1" shadow="0">
      <root>
        <mxCell id="GFCgMfOZ4oJYHMGOedWO-0" />
        <mxCell id="GFCgMfOZ4oJYHMGOedWO-1" value="Node" style="" parent="GFCgMfOZ4oJYHMGOedWO-0" />
        <mxCell id="GFCgMfOZ4oJYHMGOedWO-2" style="edgeStyle=orthogonalEdgeStyle;rounded=0;orthogonalLoop=1;jettySize=auto;html=1;fontSize=20;fontFamily=HarmonyOS Sans SC;" edge="1" parent="GFCgMfOZ4oJYHMGOedWO-1" source="GFCgMfOZ4oJYHMGOedWO-4" target="GFCgMfOZ4oJYHMGOedWO-7">
          <mxGeometry relative="1" as="geometry" />
        </mxCell>
        <mxCell id="GFCgMfOZ4oJYHMGOedWO-3" value="\(e_{1,2}\)" style="edgeLabel;html=1;align=center;verticalAlign=middle;resizable=0;points=[];fontFamily=HarmonyOS Sans SC;fontSize=20;" vertex="1" connectable="0" parent="GFCgMfOZ4oJYHMGOedWO-2">
          <mxGeometry x="-0.0393" y="1" relative="1" as="geometry">
            <mxPoint y="1" as="offset" />
          </mxGeometry>
        </mxCell>
        <mxCell id="GFCgMfOZ4oJYHMGOedWO-4" value="" style="ellipse;whiteSpace=wrap;html=1;aspect=fixed;fontFamily=HarmonyOS Sans SC;fontSize=20;comic=0;fillStyle=hatch;fillColor=#000000;" vertex="1" parent="GFCgMfOZ4oJYHMGOedWO-1">
          <mxGeometry width="80" height="80" as="geometry" />
        </mxCell>
        <mxCell id="GFCgMfOZ4oJYHMGOedWO-5" style="edgeStyle=orthogonalEdgeStyle;shape=connector;rounded=0;orthogonalLoop=1;jettySize=auto;html=1;strokeColor=default;align=center;verticalAlign=middle;fontFamily=HarmonyOS Sans SC;fontSize=20;fontColor=default;labelBackgroundColor=default;endArrow=classic;" edge="1" parent="GFCgMfOZ4oJYHMGOedWO-1" source="GFCgMfOZ4oJYHMGOedWO-7" target="GFCgMfOZ4oJYHMGOedWO-14">
          <mxGeometry relative="1" as="geometry" />
        </mxCell>
        <mxCell id="GFCgMfOZ4oJYHMGOedWO-6" value="\(e_{2,3}\)" style="edgeLabel;html=1;align=center;verticalAlign=middle;resizable=0;points=[];fontFamily=HarmonyOS Sans SC;fontSize=20;fontColor=default;labelBackgroundColor=default;" vertex="1" connectable="0" parent="GFCgMfOZ4oJYHMGOedWO-5">
          <mxGeometry x="-0.0821" y="-1" relative="1" as="geometry">
            <mxPoint x="3" y="-1" as="offset" />
          </mxGeometry>
        </mxCell>
        <mxCell id="GFCgMfOZ4oJYHMGOedWO-7" value="" style="ellipse;whiteSpace=wrap;html=1;aspect=fixed;fontFamily=HarmonyOS Sans SC;fontSize=20;comic=0;fillStyle=hatch;fillColor=#000000;" vertex="1" parent="GFCgMfOZ4oJYHMGOedWO-1">
          <mxGeometry x="160" width="80" height="80" as="geometry" />
        </mxCell>
        <mxCell id="GFCgMfOZ4oJYHMGOedWO-8" style="shape=connector;rounded=0;orthogonalLoop=1;jettySize=auto;html=1;strokeColor=default;align=center;verticalAlign=middle;fontFamily=HarmonyOS Sans SC;fontSize=20;fontColor=default;labelBackgroundColor=default;endArrow=classic;" edge="1" parent="GFCgMfOZ4oJYHMGOedWO-1" source="GFCgMfOZ4oJYHMGOedWO-14" target="GFCgMfOZ4oJYHMGOedWO-20">
          <mxGeometry relative="1" as="geometry" />
        </mxCell>
        <mxCell id="GFCgMfOZ4oJYHMGOedWO-9" value="\(e_{3,4}\)" style="edgeLabel;html=1;align=center;verticalAlign=middle;resizable=0;points=[];fontFamily=HarmonyOS Sans SC;fontSize=20;fontColor=default;labelBackgroundColor=default;" vertex="1" connectable="0" parent="GFCgMfOZ4oJYHMGOedWO-8">
          <mxGeometry x="-0.1216" y="2" relative="1" as="geometry">
            <mxPoint x="5" y="-2" as="offset" />
          </mxGeometry>
        </mxCell>
        <mxCell id="GFCgMfOZ4oJYHMGOedWO-10" style="edgeStyle=none;shape=connector;rounded=0;orthogonalLoop=1;jettySize=auto;html=1;strokeColor=default;align=center;verticalAlign=middle;fontFamily=HarmonyOS Sans SC;fontSize=20;fontColor=default;labelBackgroundColor=default;endArrow=classic;" edge="1" parent="GFCgMfOZ4oJYHMGOedWO-1" source="GFCgMfOZ4oJYHMGOedWO-14" target="GFCgMfOZ4oJYHMGOedWO-29">
          <mxGeometry relative="1" as="geometry" />
        </mxCell>
        <mxCell id="GFCgMfOZ4oJYHMGOedWO-11" value="\(e_{3,6}\)" style="edgeLabel;html=1;align=center;verticalAlign=middle;resizable=0;points=[];fontFamily=HarmonyOS Sans SC;fontSize=20;fontColor=default;labelBackgroundColor=default;" vertex="1" connectable="0" parent="GFCgMfOZ4oJYHMGOedWO-10">
          <mxGeometry x="-0.0721" y="1" relative="1" as="geometry">
            <mxPoint x="2" y="3" as="offset" />
          </mxGeometry>
        </mxCell>
        <mxCell id="GFCgMfOZ4oJYHMGOedWO-12" style="edgeStyle=none;shape=connector;rounded=0;orthogonalLoop=1;jettySize=auto;html=1;strokeColor=default;align=center;verticalAlign=middle;fontFamily=HarmonyOS Sans SC;fontSize=20;fontColor=default;labelBackgroundColor=default;endArrow=classic;" edge="1" parent="GFCgMfOZ4oJYHMGOedWO-1" source="GFCgMfOZ4oJYHMGOedWO-14" target="GFCgMfOZ4oJYHMGOedWO-17">
          <mxGeometry relative="1" as="geometry" />
        </mxCell>
        <mxCell id="GFCgMfOZ4oJYHMGOedWO-13" value="\(e_{3,5}\)" style="edgeLabel;html=1;align=center;verticalAlign=middle;resizable=0;points=[];fontFamily=HarmonyOS Sans SC;fontSize=20;fontColor=default;labelBackgroundColor=default;" vertex="1" connectable="0" parent="GFCgMfOZ4oJYHMGOedWO-12">
          <mxGeometry x="-0.0054" relative="1" as="geometry">
            <mxPoint x="1" as="offset" />
          </mxGeometry>
        </mxCell>
        <mxCell id="GFCgMfOZ4oJYHMGOedWO-14" value="" style="ellipse;whiteSpace=wrap;html=1;aspect=fixed;fontFamily=HarmonyOS Sans SC;fontSize=20;comic=0;fillStyle=hatch;fillColor=#000000;" vertex="1" parent="GFCgMfOZ4oJYHMGOedWO-1">
          <mxGeometry x="320" width="80" height="80" as="geometry" />
        </mxCell>
        <mxCell id="GFCgMfOZ4oJYHMGOedWO-15" style="edgeStyle=none;shape=connector;rounded=0;orthogonalLoop=1;jettySize=auto;html=1;strokeColor=default;align=center;verticalAlign=middle;fontFamily=HarmonyOS Sans SC;fontSize=20;fontColor=default;labelBackgroundColor=default;endArrow=classic;" edge="1" parent="GFCgMfOZ4oJYHMGOedWO-1" source="GFCgMfOZ4oJYHMGOedWO-17" target="GFCgMfOZ4oJYHMGOedWO-32">
          <mxGeometry relative="1" as="geometry" />
        </mxCell>
        <mxCell id="GFCgMfOZ4oJYHMGOedWO-16" value="\(e_{5,9}\)" style="edgeLabel;html=1;align=center;verticalAlign=middle;resizable=0;points=[];fontFamily=HarmonyOS Sans SC;fontSize=20;fontColor=default;labelBackgroundColor=default;" vertex="1" connectable="0" parent="GFCgMfOZ4oJYHMGOedWO-15">
          <mxGeometry x="-0.0125" y="1" relative="1" as="geometry">
            <mxPoint x="1" y="1" as="offset" />
          </mxGeometry>
        </mxCell>
        <mxCell id="GFCgMfOZ4oJYHMGOedWO-17" value="" style="ellipse;whiteSpace=wrap;html=1;aspect=fixed;fontFamily=HarmonyOS Sans SC;fontSize=20;" vertex="1" parent="GFCgMfOZ4oJYHMGOedWO-1">
          <mxGeometry x="560" width="80" height="80" as="geometry" />
        </mxCell>
        <mxCell id="GFCgMfOZ4oJYHMGOedWO-18" style="edgeStyle=none;shape=connector;rounded=0;orthogonalLoop=1;jettySize=auto;html=1;strokeColor=default;align=center;verticalAlign=middle;fontFamily=HarmonyOS Sans SC;fontSize=20;fontColor=default;labelBackgroundColor=default;endArrow=classic;" edge="1" parent="GFCgMfOZ4oJYHMGOedWO-1" source="GFCgMfOZ4oJYHMGOedWO-20" target="GFCgMfOZ4oJYHMGOedWO-23">
          <mxGeometry relative="1" as="geometry" />
        </mxCell>
        <mxCell id="GFCgMfOZ4oJYHMGOedWO-19" value="\(e_{4,7}\)" style="edgeLabel;html=1;align=center;verticalAlign=middle;resizable=0;points=[];fontFamily=HarmonyOS Sans SC;fontSize=20;fontColor=default;labelBackgroundColor=default;" vertex="1" connectable="0" parent="GFCgMfOZ4oJYHMGOedWO-18">
          <mxGeometry x="-0.0125" y="1" relative="1" as="geometry">
            <mxPoint x="1" y="1" as="offset" />
          </mxGeometry>
        </mxCell>
        <mxCell id="GFCgMfOZ4oJYHMGOedWO-20" value="" style="ellipse;whiteSpace=wrap;html=1;aspect=fixed;fontFamily=HarmonyOS Sans SC;fontSize=20;comic=0;fillStyle=hatch;fillColor=#000000;" vertex="1" parent="GFCgMfOZ4oJYHMGOedWO-1">
          <mxGeometry x="460" y="-80" width="80" height="80" as="geometry" />
        </mxCell>
        <mxCell id="GFCgMfOZ4oJYHMGOedWO-21" style="edgeStyle=none;shape=connector;rounded=0;orthogonalLoop=1;jettySize=auto;html=1;strokeColor=default;align=center;verticalAlign=middle;fontFamily=HarmonyOS Sans SC;fontSize=20;fontColor=default;labelBackgroundColor=default;endArrow=classic;" edge="1" parent="GFCgMfOZ4oJYHMGOedWO-1" source="GFCgMfOZ4oJYHMGOedWO-23" target="GFCgMfOZ4oJYHMGOedWO-32">
          <mxGeometry relative="1" as="geometry" />
        </mxCell>
        <mxCell id="GFCgMfOZ4oJYHMGOedWO-22" value="\(e_{7,9}\)" style="edgeLabel;html=1;align=center;verticalAlign=middle;resizable=0;points=[];fontFamily=HarmonyOS Sans SC;fontSize=20;fontColor=default;labelBackgroundColor=default;" vertex="1" connectable="0" parent="GFCgMfOZ4oJYHMGOedWO-21">
          <mxGeometry x="-0.045" y="1" relative="1" as="geometry">
            <mxPoint as="offset" />
          </mxGeometry>
        </mxCell>
        <mxCell id="GFCgMfOZ4oJYHMGOedWO-23" value="" style="ellipse;whiteSpace=wrap;html=1;aspect=fixed;fontFamily=HarmonyOS Sans SC;fontSize=20;comic=0;fillStyle=hatch;fillColor=#000000;" vertex="1" parent="GFCgMfOZ4oJYHMGOedWO-1">
          <mxGeometry x="660" y="-80" width="80" height="80" as="geometry" />
        </mxCell>
        <mxCell id="GFCgMfOZ4oJYHMGOedWO-24" style="edgeStyle=none;shape=connector;rounded=0;orthogonalLoop=1;jettySize=auto;html=1;strokeColor=default;align=center;verticalAlign=middle;fontFamily=HarmonyOS Sans SC;fontSize=20;fontColor=default;labelBackgroundColor=default;endArrow=classic;" edge="1" parent="GFCgMfOZ4oJYHMGOedWO-1" source="GFCgMfOZ4oJYHMGOedWO-26" target="GFCgMfOZ4oJYHMGOedWO-32">
          <mxGeometry relative="1" as="geometry" />
        </mxCell>
        <mxCell id="GFCgMfOZ4oJYHMGOedWO-25" value="\(e_{8,9}\)" style="edgeLabel;html=1;align=center;verticalAlign=middle;resizable=0;points=[];fontFamily=HarmonyOS Sans SC;fontSize=20;fontColor=default;labelBackgroundColor=default;" vertex="1" connectable="0" parent="GFCgMfOZ4oJYHMGOedWO-24">
          <mxGeometry x="-0.0045" y="1" relative="1" as="geometry">
            <mxPoint as="offset" />
          </mxGeometry>
        </mxCell>
        <mxCell id="GFCgMfOZ4oJYHMGOedWO-26" value="" style="ellipse;whiteSpace=wrap;html=1;aspect=fixed;fontFamily=HarmonyOS Sans SC;fontSize=20;" vertex="1" parent="GFCgMfOZ4oJYHMGOedWO-1">
          <mxGeometry x="660" y="80" width="80" height="80" as="geometry" />
        </mxCell>
        <mxCell id="GFCgMfOZ4oJYHMGOedWO-27" style="edgeStyle=none;shape=connector;rounded=0;orthogonalLoop=1;jettySize=auto;html=1;strokeColor=default;align=center;verticalAlign=middle;fontFamily=HarmonyOS Sans SC;fontSize=20;fontColor=default;labelBackgroundColor=default;endArrow=classic;" edge="1" parent="GFCgMfOZ4oJYHMGOedWO-1" source="GFCgMfOZ4oJYHMGOedWO-29" target="GFCgMfOZ4oJYHMGOedWO-26">
          <mxGeometry relative="1" as="geometry" />
        </mxCell>
        <mxCell id="GFCgMfOZ4oJYHMGOedWO-28" value="\(e_{6,8}\)" style="edgeLabel;html=1;align=center;verticalAlign=middle;resizable=0;points=[];fontFamily=HarmonyOS Sans SC;fontSize=20;fontColor=default;labelBackgroundColor=default;" vertex="1" connectable="0" parent="GFCgMfOZ4oJYHMGOedWO-27">
          <mxGeometry x="-0.0054" relative="1" as="geometry">
            <mxPoint x="1" as="offset" />
          </mxGeometry>
        </mxCell>
        <mxCell id="GFCgMfOZ4oJYHMGOedWO-29" value="" style="ellipse;whiteSpace=wrap;html=1;aspect=fixed;fontFamily=HarmonyOS Sans SC;fontSize=20;" vertex="1" parent="GFCgMfOZ4oJYHMGOedWO-1">
          <mxGeometry x="460" y="80" width="80" height="80" as="geometry" />
        </mxCell>
        <mxCell id="GFCgMfOZ4oJYHMGOedWO-30" style="edgeStyle=none;shape=connector;rounded=0;orthogonalLoop=1;jettySize=auto;html=1;strokeColor=default;align=center;verticalAlign=middle;fontFamily=HarmonyOS Sans SC;fontSize=20;fontColor=default;labelBackgroundColor=default;endArrow=classic;" edge="1" parent="GFCgMfOZ4oJYHMGOedWO-1" source="GFCgMfOZ4oJYHMGOedWO-32" target="GFCgMfOZ4oJYHMGOedWO-33">
          <mxGeometry relative="1" as="geometry" />
        </mxCell>
        <mxCell id="GFCgMfOZ4oJYHMGOedWO-31" value="\(e_{9,10}\)" style="edgeLabel;html=1;align=center;verticalAlign=middle;resizable=0;points=[];fontFamily=HarmonyOS Sans SC;fontSize=20;fontColor=default;labelBackgroundColor=default;" vertex="1" connectable="0" parent="GFCgMfOZ4oJYHMGOedWO-30">
          <mxGeometry x="-0.0393" relative="1" as="geometry">
            <mxPoint as="offset" />
          </mxGeometry>
        </mxCell>
        <mxCell id="GFCgMfOZ4oJYHMGOedWO-32" value="" style="ellipse;whiteSpace=wrap;html=1;aspect=fixed;fontFamily=HarmonyOS Sans SC;fontSize=20;" vertex="1" parent="GFCgMfOZ4oJYHMGOedWO-1">
          <mxGeometry x="800" width="80" height="80" as="geometry" />
        </mxCell>
        <mxCell id="GFCgMfOZ4oJYHMGOedWO-33" value="" style="ellipse;whiteSpace=wrap;html=1;aspect=fixed;fontFamily=HarmonyOS Sans SC;fontSize=20;" vertex="1" parent="GFCgMfOZ4oJYHMGOedWO-1">
          <mxGeometry x="960" width="80" height="80" as="geometry" />
        </mxCell>
        <mxCell id="Rb85rlFPRt6ieWC2xHj9-1" value="" style="ellipse;whiteSpace=wrap;html=1;aspect=fixed;fontFamily=HarmonyOS Sans SC;fontSize=20;comic=0;fillStyle=hatch;fillColor=#000000;" vertex="1" parent="GFCgMfOZ4oJYHMGOedWO-1">
          <mxGeometry y="120" width="40" height="40" as="geometry" />
        </mxCell>
        <mxCell id="GFCgMfOZ4oJYHMGOedWO-34" value="Text" style="" parent="GFCgMfOZ4oJYHMGOedWO-0" />
        <mxCell id="GFCgMfOZ4oJYHMGOedWO-35" value="\(f_1\)&lt;div&gt;\(0\)&lt;/div&gt;" style="text;html=1;align=center;verticalAlign=middle;whiteSpace=wrap;rounded=0;fontFamily=HarmonyOS Sans SC;fontSize=20;fillColor=default;" vertex="1" parent="GFCgMfOZ4oJYHMGOedWO-34">
          <mxGeometry x="25" y="10" width="30" height="60" as="geometry" />
        </mxCell>
        <mxCell id="GFCgMfOZ4oJYHMGOedWO-36" value="\(f_2\)&lt;div&gt;\(1\)&lt;/div&gt;" style="text;html=1;align=center;verticalAlign=middle;whiteSpace=wrap;rounded=0;fontFamily=HarmonyOS Sans SC;fontSize=20;fillColor=default;" vertex="1" parent="GFCgMfOZ4oJYHMGOedWO-34">
          <mxGeometry x="185" y="10" width="30" height="60" as="geometry" />
        </mxCell>
        <mxCell id="GFCgMfOZ4oJYHMGOedWO-37" value="\(f_3\)&lt;div&gt;\(2\)&lt;/div&gt;" style="text;html=1;align=center;verticalAlign=middle;whiteSpace=wrap;rounded=0;fontFamily=HarmonyOS Sans SC;fontSize=20;fillColor=default;" vertex="1" parent="GFCgMfOZ4oJYHMGOedWO-34">
          <mxGeometry x="345" y="10" width="30" height="60" as="geometry" />
        </mxCell>
        <mxCell id="GFCgMfOZ4oJYHMGOedWO-38" value="\(f_4\)&lt;div&gt;\(3\)&lt;/div&gt;" style="text;html=1;align=center;verticalAlign=middle;whiteSpace=wrap;rounded=0;fontFamily=HarmonyOS Sans SC;fontSize=20;fillColor=default;" vertex="1" parent="GFCgMfOZ4oJYHMGOedWO-34">
          <mxGeometry x="485" y="-70" width="30" height="60" as="geometry" />
        </mxCell>
        <mxCell id="GFCgMfOZ4oJYHMGOedWO-39" value="\(f_6\)&lt;div&gt;\(4\)&lt;/div&gt;" style="text;html=1;align=center;verticalAlign=middle;whiteSpace=wrap;rounded=0;fontFamily=HarmonyOS Sans SC;fontSize=20;fillColor=default;" vertex="1" parent="GFCgMfOZ4oJYHMGOedWO-34">
          <mxGeometry x="485" y="90" width="30" height="60" as="geometry" />
        </mxCell>
        <mxCell id="GFCgMfOZ4oJYHMGOedWO-40" value="\(f_5\)&lt;div&gt;\(5\)&lt;/div&gt;" style="text;html=1;align=center;verticalAlign=middle;whiteSpace=wrap;rounded=0;fontFamily=HarmonyOS Sans SC;fontSize=20;fillColor=default;" vertex="1" parent="GFCgMfOZ4oJYHMGOedWO-34">
          <mxGeometry x="585" y="10" width="30" height="60" as="geometry" />
        </mxCell>
        <mxCell id="GFCgMfOZ4oJYHMGOedWO-41" value="\(f_7\)&lt;div&gt;\(7\)&lt;/div&gt;" style="text;html=1;align=center;verticalAlign=middle;whiteSpace=wrap;rounded=0;fontFamily=HarmonyOS Sans SC;fontSize=20;fillColor=default;" vertex="1" parent="GFCgMfOZ4oJYHMGOedWO-34">
          <mxGeometry x="685" y="-70" width="30" height="60" as="geometry" />
        </mxCell>
        <mxCell id="GFCgMfOZ4oJYHMGOedWO-42" value="\(f_8\)&lt;div&gt;\(6\)&lt;/div&gt;" style="text;html=1;align=center;verticalAlign=middle;whiteSpace=wrap;rounded=0;fontFamily=HarmonyOS Sans SC;fontSize=20;fillColor=default;" vertex="1" parent="GFCgMfOZ4oJYHMGOedWO-34">
          <mxGeometry x="685" y="90" width="30" height="60" as="geometry" />
        </mxCell>
        <mxCell id="GFCgMfOZ4oJYHMGOedWO-43" value="\(f_9\)&lt;div&gt;\(8\)&lt;/div&gt;" style="text;html=1;align=center;verticalAlign=middle;whiteSpace=wrap;rounded=0;fontFamily=HarmonyOS Sans SC;fontSize=20;fillColor=default;" vertex="1" parent="GFCgMfOZ4oJYHMGOedWO-34">
          <mxGeometry x="825" y="10" width="30" height="60" as="geometry" />
        </mxCell>
        <mxCell id="GFCgMfOZ4oJYHMGOedWO-44" value="\(f_{10}\)&lt;div&gt;\(10\)&lt;/div&gt;" style="text;html=1;align=center;verticalAlign=middle;whiteSpace=wrap;rounded=0;fontFamily=HarmonyOS Sans SC;fontSize=20;fillColor=default;" vertex="1" parent="GFCgMfOZ4oJYHMGOedWO-34">
          <mxGeometry x="985" y="10" width="30" height="60" as="geometry" />
        </mxCell>
        <mxCell id="Rb85rlFPRt6ieWC2xHj9-3" value="Group 1" style="text;html=1;align=center;verticalAlign=middle;whiteSpace=wrap;rounded=0;fontFamily=HarmonyOS Sans SC;fontSize=20;fontColor=default;labelBackgroundColor=default;" vertex="1" parent="GFCgMfOZ4oJYHMGOedWO-34">
          <mxGeometry x="40" y="120" width="90" height="40" as="geometry" />
        </mxCell>
      </root>
    </mxGraphModel>
  </diagram>
  <diagram name="第 4 页" id="cIssSsLxD-SsUwUgr6ay">
    <mxGraphModel dx="2074" dy="1596" grid="1" gridSize="10" guides="1" tooltips="1" connect="1" arrows="1" fold="1" page="0" pageScale="1" pageWidth="827" pageHeight="1169" math="1" shadow="0">
      <root>
        <mxCell id="8qUTF4rnu51dMu_NBI8v-0" />
        <mxCell id="8qUTF4rnu51dMu_NBI8v-1" value="Node" style="locked=1;" parent="8qUTF4rnu51dMu_NBI8v-0" />
        <mxCell id="8qUTF4rnu51dMu_NBI8v-2" style="edgeStyle=orthogonalEdgeStyle;rounded=0;orthogonalLoop=1;jettySize=auto;html=1;fontSize=20;fontFamily=HarmonyOS Sans SC;" edge="1" parent="8qUTF4rnu51dMu_NBI8v-1" source="8qUTF4rnu51dMu_NBI8v-4" target="8qUTF4rnu51dMu_NBI8v-7">
          <mxGeometry relative="1" as="geometry" />
        </mxCell>
        <mxCell id="8qUTF4rnu51dMu_NBI8v-3" value="\(e_{1,2}\)" style="edgeLabel;html=1;align=center;verticalAlign=middle;resizable=0;points=[];fontFamily=HarmonyOS Sans SC;fontSize=20;" vertex="1" connectable="0" parent="8qUTF4rnu51dMu_NBI8v-2">
          <mxGeometry x="-0.0393" y="1" relative="1" as="geometry">
            <mxPoint y="1" as="offset" />
          </mxGeometry>
        </mxCell>
        <mxCell id="8qUTF4rnu51dMu_NBI8v-4" value="" style="ellipse;whiteSpace=wrap;html=1;aspect=fixed;fontFamily=HarmonyOS Sans SC;fontSize=20;comic=0;fillStyle=hatch;fillColor=#000000;" vertex="1" parent="8qUTF4rnu51dMu_NBI8v-1">
          <mxGeometry width="80" height="80" as="geometry" />
        </mxCell>
        <mxCell id="8qUTF4rnu51dMu_NBI8v-5" style="edgeStyle=orthogonalEdgeStyle;shape=connector;rounded=0;orthogonalLoop=1;jettySize=auto;html=1;strokeColor=default;align=center;verticalAlign=middle;fontFamily=HarmonyOS Sans SC;fontSize=20;fontColor=default;labelBackgroundColor=default;endArrow=classic;" edge="1" parent="8qUTF4rnu51dMu_NBI8v-1" source="8qUTF4rnu51dMu_NBI8v-7" target="8qUTF4rnu51dMu_NBI8v-14">
          <mxGeometry relative="1" as="geometry" />
        </mxCell>
        <mxCell id="8qUTF4rnu51dMu_NBI8v-6" value="\(e_{2,3}\)" style="edgeLabel;html=1;align=center;verticalAlign=middle;resizable=0;points=[];fontFamily=HarmonyOS Sans SC;fontSize=20;fontColor=default;labelBackgroundColor=default;" vertex="1" connectable="0" parent="8qUTF4rnu51dMu_NBI8v-5">
          <mxGeometry x="-0.0821" y="-1" relative="1" as="geometry">
            <mxPoint x="3" y="-1" as="offset" />
          </mxGeometry>
        </mxCell>
        <mxCell id="8qUTF4rnu51dMu_NBI8v-7" value="" style="ellipse;whiteSpace=wrap;html=1;aspect=fixed;fontFamily=HarmonyOS Sans SC;fontSize=20;comic=0;fillStyle=hatch;fillColor=#000000;" vertex="1" parent="8qUTF4rnu51dMu_NBI8v-1">
          <mxGeometry x="160" width="80" height="80" as="geometry" />
        </mxCell>
        <mxCell id="8qUTF4rnu51dMu_NBI8v-8" style="shape=connector;rounded=0;orthogonalLoop=1;jettySize=auto;html=1;strokeColor=default;align=center;verticalAlign=middle;fontFamily=HarmonyOS Sans SC;fontSize=20;fontColor=default;labelBackgroundColor=default;endArrow=classic;" edge="1" parent="8qUTF4rnu51dMu_NBI8v-1" source="8qUTF4rnu51dMu_NBI8v-14" target="8qUTF4rnu51dMu_NBI8v-20">
          <mxGeometry relative="1" as="geometry" />
        </mxCell>
        <mxCell id="8qUTF4rnu51dMu_NBI8v-9" value="\(e_{3,4}\)" style="edgeLabel;html=1;align=center;verticalAlign=middle;resizable=0;points=[];fontFamily=HarmonyOS Sans SC;fontSize=20;fontColor=default;labelBackgroundColor=default;" vertex="1" connectable="0" parent="8qUTF4rnu51dMu_NBI8v-8">
          <mxGeometry x="-0.1216" y="2" relative="1" as="geometry">
            <mxPoint x="5" y="-2" as="offset" />
          </mxGeometry>
        </mxCell>
        <mxCell id="8qUTF4rnu51dMu_NBI8v-10" style="edgeStyle=none;shape=connector;rounded=0;orthogonalLoop=1;jettySize=auto;html=1;strokeColor=default;align=center;verticalAlign=middle;fontFamily=HarmonyOS Sans SC;fontSize=20;fontColor=default;labelBackgroundColor=default;endArrow=classic;" edge="1" parent="8qUTF4rnu51dMu_NBI8v-1" source="8qUTF4rnu51dMu_NBI8v-14" target="8qUTF4rnu51dMu_NBI8v-29">
          <mxGeometry relative="1" as="geometry" />
        </mxCell>
        <mxCell id="8qUTF4rnu51dMu_NBI8v-11" value="\(e_{3,6}\)" style="edgeLabel;html=1;align=center;verticalAlign=middle;resizable=0;points=[];fontFamily=HarmonyOS Sans SC;fontSize=20;fontColor=default;labelBackgroundColor=default;" vertex="1" connectable="0" parent="8qUTF4rnu51dMu_NBI8v-10">
          <mxGeometry x="-0.0721" y="1" relative="1" as="geometry">
            <mxPoint x="2" y="3" as="offset" />
          </mxGeometry>
        </mxCell>
        <mxCell id="8qUTF4rnu51dMu_NBI8v-12" style="edgeStyle=none;shape=connector;rounded=0;orthogonalLoop=1;jettySize=auto;html=1;strokeColor=default;align=center;verticalAlign=middle;fontFamily=HarmonyOS Sans SC;fontSize=20;fontColor=default;labelBackgroundColor=default;endArrow=classic;" edge="1" parent="8qUTF4rnu51dMu_NBI8v-1" source="8qUTF4rnu51dMu_NBI8v-14" target="8qUTF4rnu51dMu_NBI8v-17">
          <mxGeometry relative="1" as="geometry" />
        </mxCell>
        <mxCell id="8qUTF4rnu51dMu_NBI8v-13" value="\(e_{3,5}\)" style="edgeLabel;html=1;align=center;verticalAlign=middle;resizable=0;points=[];fontFamily=HarmonyOS Sans SC;fontSize=20;fontColor=default;labelBackgroundColor=default;" vertex="1" connectable="0" parent="8qUTF4rnu51dMu_NBI8v-12">
          <mxGeometry x="-0.0054" relative="1" as="geometry">
            <mxPoint x="1" as="offset" />
          </mxGeometry>
        </mxCell>
        <mxCell id="8qUTF4rnu51dMu_NBI8v-14" value="" style="ellipse;whiteSpace=wrap;html=1;aspect=fixed;fontFamily=HarmonyOS Sans SC;fontSize=20;comic=0;fillStyle=hatch;fillColor=#000000;" vertex="1" parent="8qUTF4rnu51dMu_NBI8v-1">
          <mxGeometry x="320" width="80" height="80" as="geometry" />
        </mxCell>
        <mxCell id="8qUTF4rnu51dMu_NBI8v-15" style="edgeStyle=none;shape=connector;rounded=0;orthogonalLoop=1;jettySize=auto;html=1;strokeColor=default;align=center;verticalAlign=middle;fontFamily=HarmonyOS Sans SC;fontSize=20;fontColor=default;labelBackgroundColor=default;endArrow=classic;" edge="1" parent="8qUTF4rnu51dMu_NBI8v-1" source="8qUTF4rnu51dMu_NBI8v-17" target="8qUTF4rnu51dMu_NBI8v-32">
          <mxGeometry relative="1" as="geometry" />
        </mxCell>
        <mxCell id="8qUTF4rnu51dMu_NBI8v-16" value="\(e_{5,9}\)" style="edgeLabel;html=1;align=center;verticalAlign=middle;resizable=0;points=[];fontFamily=HarmonyOS Sans SC;fontSize=20;fontColor=default;labelBackgroundColor=default;" vertex="1" connectable="0" parent="8qUTF4rnu51dMu_NBI8v-15">
          <mxGeometry x="-0.0125" y="1" relative="1" as="geometry">
            <mxPoint x="1" y="1" as="offset" />
          </mxGeometry>
        </mxCell>
        <mxCell id="8qUTF4rnu51dMu_NBI8v-17" value="" style="ellipse;whiteSpace=wrap;html=1;aspect=fixed;fontFamily=HarmonyOS Sans SC;fontSize=20;" vertex="1" parent="8qUTF4rnu51dMu_NBI8v-1">
          <mxGeometry x="560" width="80" height="80" as="geometry" />
        </mxCell>
        <mxCell id="8qUTF4rnu51dMu_NBI8v-18" style="edgeStyle=none;shape=connector;rounded=0;orthogonalLoop=1;jettySize=auto;html=1;strokeColor=default;align=center;verticalAlign=middle;fontFamily=HarmonyOS Sans SC;fontSize=20;fontColor=default;labelBackgroundColor=default;endArrow=classic;" edge="1" parent="8qUTF4rnu51dMu_NBI8v-1" source="8qUTF4rnu51dMu_NBI8v-20" target="8qUTF4rnu51dMu_NBI8v-23">
          <mxGeometry relative="1" as="geometry" />
        </mxCell>
        <mxCell id="8qUTF4rnu51dMu_NBI8v-19" value="\(e_{4,7}\)" style="edgeLabel;html=1;align=center;verticalAlign=middle;resizable=0;points=[];fontFamily=HarmonyOS Sans SC;fontSize=20;fontColor=default;labelBackgroundColor=default;" vertex="1" connectable="0" parent="8qUTF4rnu51dMu_NBI8v-18">
          <mxGeometry x="-0.0125" y="1" relative="1" as="geometry">
            <mxPoint x="1" y="1" as="offset" />
          </mxGeometry>
        </mxCell>
        <mxCell id="8qUTF4rnu51dMu_NBI8v-20" value="" style="ellipse;whiteSpace=wrap;html=1;aspect=fixed;fontFamily=HarmonyOS Sans SC;fontSize=20;comic=0;fillStyle=hatch;fillColor=#000000;" vertex="1" parent="8qUTF4rnu51dMu_NBI8v-1">
          <mxGeometry x="460" y="-80" width="80" height="80" as="geometry" />
        </mxCell>
        <mxCell id="8qUTF4rnu51dMu_NBI8v-21" style="edgeStyle=none;shape=connector;rounded=0;orthogonalLoop=1;jettySize=auto;html=1;strokeColor=default;align=center;verticalAlign=middle;fontFamily=HarmonyOS Sans SC;fontSize=20;fontColor=default;labelBackgroundColor=default;endArrow=classic;" edge="1" parent="8qUTF4rnu51dMu_NBI8v-1" source="8qUTF4rnu51dMu_NBI8v-23" target="8qUTF4rnu51dMu_NBI8v-32">
          <mxGeometry relative="1" as="geometry" />
        </mxCell>
        <mxCell id="8qUTF4rnu51dMu_NBI8v-22" value="\(e_{7,9}\)" style="edgeLabel;html=1;align=center;verticalAlign=middle;resizable=0;points=[];fontFamily=HarmonyOS Sans SC;fontSize=20;fontColor=default;labelBackgroundColor=default;" vertex="1" connectable="0" parent="8qUTF4rnu51dMu_NBI8v-21">
          <mxGeometry x="-0.045" y="1" relative="1" as="geometry">
            <mxPoint as="offset" />
          </mxGeometry>
        </mxCell>
        <mxCell id="8qUTF4rnu51dMu_NBI8v-23" value="" style="ellipse;whiteSpace=wrap;html=1;aspect=fixed;fontFamily=HarmonyOS Sans SC;fontSize=20;comic=0;fillStyle=hatch;fillColor=#000000;" vertex="1" parent="8qUTF4rnu51dMu_NBI8v-1">
          <mxGeometry x="660" y="-80" width="80" height="80" as="geometry" />
        </mxCell>
        <mxCell id="8qUTF4rnu51dMu_NBI8v-24" style="edgeStyle=none;shape=connector;rounded=0;orthogonalLoop=1;jettySize=auto;html=1;strokeColor=default;align=center;verticalAlign=middle;fontFamily=HarmonyOS Sans SC;fontSize=20;fontColor=default;labelBackgroundColor=default;endArrow=classic;" edge="1" parent="8qUTF4rnu51dMu_NBI8v-1" source="8qUTF4rnu51dMu_NBI8v-26" target="8qUTF4rnu51dMu_NBI8v-32">
          <mxGeometry relative="1" as="geometry" />
        </mxCell>
        <mxCell id="8qUTF4rnu51dMu_NBI8v-25" value="\(e_{8,9}\)" style="edgeLabel;html=1;align=center;verticalAlign=middle;resizable=0;points=[];fontFamily=HarmonyOS Sans SC;fontSize=20;fontColor=default;labelBackgroundColor=default;" vertex="1" connectable="0" parent="8qUTF4rnu51dMu_NBI8v-24">
          <mxGeometry x="-0.0045" y="1" relative="1" as="geometry">
            <mxPoint as="offset" />
          </mxGeometry>
        </mxCell>
        <mxCell id="8qUTF4rnu51dMu_NBI8v-26" value="" style="ellipse;whiteSpace=wrap;html=1;aspect=fixed;fontFamily=HarmonyOS Sans SC;fontSize=20;fillStyle=dots;fillColor=#000000;" vertex="1" parent="8qUTF4rnu51dMu_NBI8v-1">
          <mxGeometry x="660" y="80" width="80" height="80" as="geometry" />
        </mxCell>
        <mxCell id="8qUTF4rnu51dMu_NBI8v-27" style="edgeStyle=none;shape=connector;rounded=0;orthogonalLoop=1;jettySize=auto;html=1;strokeColor=default;align=center;verticalAlign=middle;fontFamily=HarmonyOS Sans SC;fontSize=20;fontColor=default;labelBackgroundColor=default;endArrow=classic;" edge="1" parent="8qUTF4rnu51dMu_NBI8v-1" source="8qUTF4rnu51dMu_NBI8v-29" target="8qUTF4rnu51dMu_NBI8v-26">
          <mxGeometry relative="1" as="geometry" />
        </mxCell>
        <mxCell id="8qUTF4rnu51dMu_NBI8v-28" value="\(e_{6,8}\)" style="edgeLabel;html=1;align=center;verticalAlign=middle;resizable=0;points=[];fontFamily=HarmonyOS Sans SC;fontSize=20;fontColor=default;labelBackgroundColor=default;" vertex="1" connectable="0" parent="8qUTF4rnu51dMu_NBI8v-27">
          <mxGeometry x="-0.0054" relative="1" as="geometry">
            <mxPoint x="1" as="offset" />
          </mxGeometry>
        </mxCell>
        <mxCell id="8qUTF4rnu51dMu_NBI8v-29" value="" style="ellipse;whiteSpace=wrap;html=1;aspect=fixed;fontFamily=HarmonyOS Sans SC;fontSize=20;fillStyle=dots;fillColor=#000000;" vertex="1" parent="8qUTF4rnu51dMu_NBI8v-1">
          <mxGeometry x="460" y="80" width="80" height="80" as="geometry" />
        </mxCell>
        <mxCell id="8qUTF4rnu51dMu_NBI8v-30" style="edgeStyle=none;shape=connector;rounded=0;orthogonalLoop=1;jettySize=auto;html=1;strokeColor=default;align=center;verticalAlign=middle;fontFamily=HarmonyOS Sans SC;fontSize=20;fontColor=default;labelBackgroundColor=default;endArrow=classic;" edge="1" parent="8qUTF4rnu51dMu_NBI8v-1" source="8qUTF4rnu51dMu_NBI8v-32" target="8qUTF4rnu51dMu_NBI8v-33">
          <mxGeometry relative="1" as="geometry" />
        </mxCell>
        <mxCell id="8qUTF4rnu51dMu_NBI8v-31" value="\(e_{9,10}\)" style="edgeLabel;html=1;align=center;verticalAlign=middle;resizable=0;points=[];fontFamily=HarmonyOS Sans SC;fontSize=20;fontColor=default;labelBackgroundColor=default;" vertex="1" connectable="0" parent="8qUTF4rnu51dMu_NBI8v-30">
          <mxGeometry x="-0.0393" relative="1" as="geometry">
            <mxPoint as="offset" />
          </mxGeometry>
        </mxCell>
        <mxCell id="8qUTF4rnu51dMu_NBI8v-32" value="" style="ellipse;whiteSpace=wrap;html=1;aspect=fixed;fontFamily=HarmonyOS Sans SC;fontSize=20;" vertex="1" parent="8qUTF4rnu51dMu_NBI8v-1">
          <mxGeometry x="800" width="80" height="80" as="geometry" />
        </mxCell>
        <mxCell id="8qUTF4rnu51dMu_NBI8v-33" value="" style="ellipse;whiteSpace=wrap;html=1;aspect=fixed;fontFamily=HarmonyOS Sans SC;fontSize=20;" vertex="1" parent="8qUTF4rnu51dMu_NBI8v-1">
          <mxGeometry x="960" width="80" height="80" as="geometry" />
        </mxCell>
        <mxCell id="8qUTF4rnu51dMu_NBI8v-34" value="" style="ellipse;whiteSpace=wrap;html=1;aspect=fixed;fontFamily=HarmonyOS Sans SC;fontSize=20;comic=0;fillStyle=hatch;fillColor=#000000;" vertex="1" parent="8qUTF4rnu51dMu_NBI8v-1">
          <mxGeometry y="120" width="40" height="40" as="geometry" />
        </mxCell>
        <mxCell id="aXI0NPAHDQDlPe0donwA-0" value="" style="ellipse;whiteSpace=wrap;html=1;aspect=fixed;fontFamily=HarmonyOS Sans SC;fontSize=20;fillStyle=dots;fillColor=#000000;" vertex="1" parent="8qUTF4rnu51dMu_NBI8v-1">
          <mxGeometry x="160" y="120" width="40" height="40" as="geometry" />
        </mxCell>
        <mxCell id="8qUTF4rnu51dMu_NBI8v-35" value="Text" style="" parent="8qUTF4rnu51dMu_NBI8v-0" />
        <mxCell id="8qUTF4rnu51dMu_NBI8v-36" value="\(f_1\)&lt;div&gt;\(0\)&lt;/div&gt;" style="text;html=1;align=center;verticalAlign=middle;whiteSpace=wrap;rounded=0;fontFamily=HarmonyOS Sans SC;fontSize=20;fillColor=default;" vertex="1" parent="8qUTF4rnu51dMu_NBI8v-35">
          <mxGeometry x="25" y="10" width="30" height="60" as="geometry" />
        </mxCell>
        <mxCell id="8qUTF4rnu51dMu_NBI8v-37" value="\(f_2\)&lt;div&gt;\(1\)&lt;/div&gt;" style="text;html=1;align=center;verticalAlign=middle;whiteSpace=wrap;rounded=0;fontFamily=HarmonyOS Sans SC;fontSize=20;fillColor=default;" vertex="1" parent="8qUTF4rnu51dMu_NBI8v-35">
          <mxGeometry x="185" y="10" width="30" height="60" as="geometry" />
        </mxCell>
        <mxCell id="8qUTF4rnu51dMu_NBI8v-38" value="\(f_3\)&lt;div&gt;\(2\)&lt;/div&gt;" style="text;html=1;align=center;verticalAlign=middle;whiteSpace=wrap;rounded=0;fontFamily=HarmonyOS Sans SC;fontSize=20;fillColor=default;" vertex="1" parent="8qUTF4rnu51dMu_NBI8v-35">
          <mxGeometry x="345" y="10" width="30" height="60" as="geometry" />
        </mxCell>
        <mxCell id="8qUTF4rnu51dMu_NBI8v-39" value="\(f_4\)&lt;div&gt;\(3\)&lt;/div&gt;" style="text;html=1;align=center;verticalAlign=middle;whiteSpace=wrap;rounded=0;fontFamily=HarmonyOS Sans SC;fontSize=20;fillColor=default;" vertex="1" parent="8qUTF4rnu51dMu_NBI8v-35">
          <mxGeometry x="485" y="-70" width="30" height="60" as="geometry" />
        </mxCell>
        <mxCell id="8qUTF4rnu51dMu_NBI8v-40" value="\(f_6\)&lt;div&gt;\(4\)&lt;/div&gt;" style="text;html=1;align=center;verticalAlign=middle;whiteSpace=wrap;rounded=0;fontFamily=HarmonyOS Sans SC;fontSize=20;fillColor=default;" vertex="1" parent="8qUTF4rnu51dMu_NBI8v-35">
          <mxGeometry x="485" y="90" width="30" height="60" as="geometry" />
        </mxCell>
        <mxCell id="8qUTF4rnu51dMu_NBI8v-41" value="\(f_5\)&lt;div&gt;\(5\)&lt;/div&gt;" style="text;html=1;align=center;verticalAlign=middle;whiteSpace=wrap;rounded=0;fontFamily=HarmonyOS Sans SC;fontSize=20;fillColor=default;" vertex="1" parent="8qUTF4rnu51dMu_NBI8v-35">
          <mxGeometry x="585" y="10" width="30" height="60" as="geometry" />
        </mxCell>
        <mxCell id="8qUTF4rnu51dMu_NBI8v-42" value="\(f_7\)&lt;div&gt;\(7\)&lt;/div&gt;" style="text;html=1;align=center;verticalAlign=middle;whiteSpace=wrap;rounded=0;fontFamily=HarmonyOS Sans SC;fontSize=20;fillColor=default;" vertex="1" parent="8qUTF4rnu51dMu_NBI8v-35">
          <mxGeometry x="685" y="-70" width="30" height="60" as="geometry" />
        </mxCell>
        <mxCell id="8qUTF4rnu51dMu_NBI8v-43" value="\(f_8\)&lt;div&gt;\(6\)&lt;/div&gt;" style="text;html=1;align=center;verticalAlign=middle;whiteSpace=wrap;rounded=0;fontFamily=HarmonyOS Sans SC;fontSize=20;fillColor=default;" vertex="1" parent="8qUTF4rnu51dMu_NBI8v-35">
          <mxGeometry x="685" y="90" width="30" height="60" as="geometry" />
        </mxCell>
        <mxCell id="8qUTF4rnu51dMu_NBI8v-44" value="\(f_9\)&lt;div&gt;\(8\)&lt;/div&gt;" style="text;html=1;align=center;verticalAlign=middle;whiteSpace=wrap;rounded=0;fontFamily=HarmonyOS Sans SC;fontSize=20;fillColor=default;" vertex="1" parent="8qUTF4rnu51dMu_NBI8v-35">
          <mxGeometry x="825" y="10" width="30" height="60" as="geometry" />
        </mxCell>
        <mxCell id="8qUTF4rnu51dMu_NBI8v-45" value="\(f_{10}\)&lt;div&gt;\(10\)&lt;/div&gt;" style="text;html=1;align=center;verticalAlign=middle;whiteSpace=wrap;rounded=0;fontFamily=HarmonyOS Sans SC;fontSize=20;fillColor=default;" vertex="1" parent="8qUTF4rnu51dMu_NBI8v-35">
          <mxGeometry x="985" y="10" width="30" height="60" as="geometry" />
        </mxCell>
        <mxCell id="8qUTF4rnu51dMu_NBI8v-46" value="Group 1" style="text;html=1;align=center;verticalAlign=middle;whiteSpace=wrap;rounded=0;fontFamily=HarmonyOS Sans SC;fontSize=20;fontColor=default;labelBackgroundColor=default;" vertex="1" parent="8qUTF4rnu51dMu_NBI8v-35">
          <mxGeometry x="40" y="120" width="90" height="40" as="geometry" />
        </mxCell>
        <mxCell id="aXI0NPAHDQDlPe0donwA-1" value="Group 2" style="text;html=1;align=center;verticalAlign=middle;whiteSpace=wrap;rounded=0;fontFamily=HarmonyOS Sans SC;fontSize=20;fontColor=default;labelBackgroundColor=default;" vertex="1" parent="8qUTF4rnu51dMu_NBI8v-35">
          <mxGeometry x="200" y="120" width="90" height="40" as="geometry" />
        </mxCell>
      </root>
    </mxGraphModel>
  </diagram>
  <diagram name="第 5 页" id="LnXbWC6v3QIDAFR-iWVz">
    <mxGraphModel dx="2074" dy="1596" grid="1" gridSize="10" guides="1" tooltips="1" connect="1" arrows="1" fold="1" page="0" pageScale="1" pageWidth="827" pageHeight="1169" math="1" shadow="0">
      <root>
        <mxCell id="2VlFaTyOnXEaWf-JD5YB-0" />
        <mxCell id="2VlFaTyOnXEaWf-JD5YB-1" value="Node" style="" parent="2VlFaTyOnXEaWf-JD5YB-0" />
        <mxCell id="2VlFaTyOnXEaWf-JD5YB-2" style="edgeStyle=orthogonalEdgeStyle;rounded=0;orthogonalLoop=1;jettySize=auto;html=1;fontSize=20;fontFamily=HarmonyOS Sans SC;" parent="2VlFaTyOnXEaWf-JD5YB-1" source="2VlFaTyOnXEaWf-JD5YB-4" target="2VlFaTyOnXEaWf-JD5YB-7" edge="1">
          <mxGeometry relative="1" as="geometry" />
        </mxCell>
        <mxCell id="2VlFaTyOnXEaWf-JD5YB-3" value="\(e_{1,2}\)" style="edgeLabel;html=1;align=center;verticalAlign=middle;resizable=0;points=[];fontFamily=HarmonyOS Sans SC;fontSize=20;" parent="2VlFaTyOnXEaWf-JD5YB-2" vertex="1" connectable="0">
          <mxGeometry x="-0.0393" y="1" relative="1" as="geometry">
            <mxPoint y="1" as="offset" />
          </mxGeometry>
        </mxCell>
        <mxCell id="2VlFaTyOnXEaWf-JD5YB-4" value="" style="ellipse;whiteSpace=wrap;html=1;aspect=fixed;fontFamily=HarmonyOS Sans SC;fontSize=20;comic=0;fillStyle=hatch;fillColor=#000000;" parent="2VlFaTyOnXEaWf-JD5YB-1" vertex="1">
          <mxGeometry width="80" height="80" as="geometry" />
        </mxCell>
        <mxCell id="2VlFaTyOnXEaWf-JD5YB-5" style="edgeStyle=orthogonalEdgeStyle;shape=connector;rounded=0;orthogonalLoop=1;jettySize=auto;html=1;strokeColor=default;align=center;verticalAlign=middle;fontFamily=HarmonyOS Sans SC;fontSize=20;fontColor=default;labelBackgroundColor=default;endArrow=classic;" parent="2VlFaTyOnXEaWf-JD5YB-1" source="2VlFaTyOnXEaWf-JD5YB-7" target="2VlFaTyOnXEaWf-JD5YB-14" edge="1">
          <mxGeometry relative="1" as="geometry" />
        </mxCell>
        <mxCell id="2VlFaTyOnXEaWf-JD5YB-6" value="\(e_{2,3}\)" style="edgeLabel;html=1;align=center;verticalAlign=middle;resizable=0;points=[];fontFamily=HarmonyOS Sans SC;fontSize=20;fontColor=default;labelBackgroundColor=default;" parent="2VlFaTyOnXEaWf-JD5YB-5" vertex="1" connectable="0">
          <mxGeometry x="-0.0821" y="-1" relative="1" as="geometry">
            <mxPoint x="3" y="-1" as="offset" />
          </mxGeometry>
        </mxCell>
        <mxCell id="2VlFaTyOnXEaWf-JD5YB-7" value="" style="ellipse;whiteSpace=wrap;html=1;aspect=fixed;fontFamily=HarmonyOS Sans SC;fontSize=20;comic=0;fillStyle=hatch;fillColor=#000000;" parent="2VlFaTyOnXEaWf-JD5YB-1" vertex="1">
          <mxGeometry x="160" width="80" height="80" as="geometry" />
        </mxCell>
        <mxCell id="2VlFaTyOnXEaWf-JD5YB-8" style="shape=connector;rounded=0;orthogonalLoop=1;jettySize=auto;html=1;strokeColor=default;align=center;verticalAlign=middle;fontFamily=HarmonyOS Sans SC;fontSize=20;fontColor=default;labelBackgroundColor=default;endArrow=classic;" parent="2VlFaTyOnXEaWf-JD5YB-1" source="2VlFaTyOnXEaWf-JD5YB-14" target="2VlFaTyOnXEaWf-JD5YB-20" edge="1">
          <mxGeometry relative="1" as="geometry" />
        </mxCell>
        <mxCell id="2VlFaTyOnXEaWf-JD5YB-9" value="\(e_{3,4}\)" style="edgeLabel;html=1;align=center;verticalAlign=middle;resizable=0;points=[];fontFamily=HarmonyOS Sans SC;fontSize=20;fontColor=default;labelBackgroundColor=default;" parent="2VlFaTyOnXEaWf-JD5YB-8" vertex="1" connectable="0">
          <mxGeometry x="-0.1216" y="2" relative="1" as="geometry">
            <mxPoint x="5" y="-2" as="offset" />
          </mxGeometry>
        </mxCell>
        <mxCell id="2VlFaTyOnXEaWf-JD5YB-10" style="edgeStyle=none;shape=connector;rounded=0;orthogonalLoop=1;jettySize=auto;html=1;strokeColor=default;align=center;verticalAlign=middle;fontFamily=HarmonyOS Sans SC;fontSize=20;fontColor=default;labelBackgroundColor=default;endArrow=classic;" parent="2VlFaTyOnXEaWf-JD5YB-1" source="2VlFaTyOnXEaWf-JD5YB-14" target="2VlFaTyOnXEaWf-JD5YB-29" edge="1">
          <mxGeometry relative="1" as="geometry" />
        </mxCell>
        <mxCell id="2VlFaTyOnXEaWf-JD5YB-11" value="\(e_{3,6}\)" style="edgeLabel;html=1;align=center;verticalAlign=middle;resizable=0;points=[];fontFamily=HarmonyOS Sans SC;fontSize=20;fontColor=default;labelBackgroundColor=default;" parent="2VlFaTyOnXEaWf-JD5YB-10" vertex="1" connectable="0">
          <mxGeometry x="-0.0721" y="1" relative="1" as="geometry">
            <mxPoint x="2" y="3" as="offset" />
          </mxGeometry>
        </mxCell>
        <mxCell id="2VlFaTyOnXEaWf-JD5YB-12" style="edgeStyle=none;shape=connector;rounded=0;orthogonalLoop=1;jettySize=auto;html=1;strokeColor=default;align=center;verticalAlign=middle;fontFamily=HarmonyOS Sans SC;fontSize=20;fontColor=default;labelBackgroundColor=default;endArrow=classic;" parent="2VlFaTyOnXEaWf-JD5YB-1" source="2VlFaTyOnXEaWf-JD5YB-14" target="2VlFaTyOnXEaWf-JD5YB-17" edge="1">
          <mxGeometry relative="1" as="geometry" />
        </mxCell>
        <mxCell id="2VlFaTyOnXEaWf-JD5YB-13" value="\(e_{3,5}\)" style="edgeLabel;html=1;align=center;verticalAlign=middle;resizable=0;points=[];fontFamily=HarmonyOS Sans SC;fontSize=20;fontColor=default;labelBackgroundColor=default;" parent="2VlFaTyOnXEaWf-JD5YB-12" vertex="1" connectable="0">
          <mxGeometry x="-0.0054" relative="1" as="geometry">
            <mxPoint x="1" as="offset" />
          </mxGeometry>
        </mxCell>
        <mxCell id="2VlFaTyOnXEaWf-JD5YB-14" value="" style="ellipse;whiteSpace=wrap;html=1;aspect=fixed;fontFamily=HarmonyOS Sans SC;fontSize=20;comic=0;fillStyle=hatch;fillColor=#000000;" parent="2VlFaTyOnXEaWf-JD5YB-1" vertex="1">
          <mxGeometry x="320" width="80" height="80" as="geometry" />
        </mxCell>
        <mxCell id="2VlFaTyOnXEaWf-JD5YB-15" style="edgeStyle=none;shape=connector;rounded=0;orthogonalLoop=1;jettySize=auto;html=1;strokeColor=default;align=center;verticalAlign=middle;fontFamily=HarmonyOS Sans SC;fontSize=20;fontColor=default;labelBackgroundColor=default;endArrow=classic;" parent="2VlFaTyOnXEaWf-JD5YB-1" source="2VlFaTyOnXEaWf-JD5YB-17" target="2VlFaTyOnXEaWf-JD5YB-32" edge="1">
          <mxGeometry relative="1" as="geometry" />
        </mxCell>
        <mxCell id="2VlFaTyOnXEaWf-JD5YB-16" value="\(e_{5,9}\)" style="edgeLabel;html=1;align=center;verticalAlign=middle;resizable=0;points=[];fontFamily=HarmonyOS Sans SC;fontSize=20;fontColor=default;labelBackgroundColor=default;" parent="2VlFaTyOnXEaWf-JD5YB-15" vertex="1" connectable="0">
          <mxGeometry x="-0.0125" y="1" relative="1" as="geometry">
            <mxPoint x="1" y="1" as="offset" />
          </mxGeometry>
        </mxCell>
        <mxCell id="2VlFaTyOnXEaWf-JD5YB-17" value="" style="ellipse;whiteSpace=wrap;html=1;aspect=fixed;fontFamily=HarmonyOS Sans SC;fontSize=20;fillStyle=zigzag-line;fillColor=#000000;" parent="2VlFaTyOnXEaWf-JD5YB-1" vertex="1">
          <mxGeometry x="560" width="80" height="80" as="geometry" />
        </mxCell>
        <mxCell id="2VlFaTyOnXEaWf-JD5YB-18" style="edgeStyle=none;shape=connector;rounded=0;orthogonalLoop=1;jettySize=auto;html=1;strokeColor=default;align=center;verticalAlign=middle;fontFamily=HarmonyOS Sans SC;fontSize=20;fontColor=default;labelBackgroundColor=default;endArrow=classic;" parent="2VlFaTyOnXEaWf-JD5YB-1" source="2VlFaTyOnXEaWf-JD5YB-20" target="2VlFaTyOnXEaWf-JD5YB-23" edge="1">
          <mxGeometry relative="1" as="geometry" />
        </mxCell>
        <mxCell id="2VlFaTyOnXEaWf-JD5YB-19" value="\(e_{4,7}\)" style="edgeLabel;html=1;align=center;verticalAlign=middle;resizable=0;points=[];fontFamily=HarmonyOS Sans SC;fontSize=20;fontColor=default;labelBackgroundColor=default;" parent="2VlFaTyOnXEaWf-JD5YB-18" vertex="1" connectable="0">
          <mxGeometry x="-0.0125" y="1" relative="1" as="geometry">
            <mxPoint x="1" y="1" as="offset" />
          </mxGeometry>
        </mxCell>
        <mxCell id="2VlFaTyOnXEaWf-JD5YB-20" value="" style="ellipse;whiteSpace=wrap;html=1;aspect=fixed;fontFamily=HarmonyOS Sans SC;fontSize=20;comic=0;fillStyle=hatch;fillColor=#000000;" parent="2VlFaTyOnXEaWf-JD5YB-1" vertex="1">
          <mxGeometry x="460" y="-80" width="80" height="80" as="geometry" />
        </mxCell>
        <mxCell id="2VlFaTyOnXEaWf-JD5YB-21" style="edgeStyle=none;shape=connector;rounded=0;orthogonalLoop=1;jettySize=auto;html=1;strokeColor=default;align=center;verticalAlign=middle;fontFamily=HarmonyOS Sans SC;fontSize=20;fontColor=default;labelBackgroundColor=default;endArrow=classic;" parent="2VlFaTyOnXEaWf-JD5YB-1" source="2VlFaTyOnXEaWf-JD5YB-23" target="2VlFaTyOnXEaWf-JD5YB-32" edge="1">
          <mxGeometry relative="1" as="geometry" />
        </mxCell>
        <mxCell id="2VlFaTyOnXEaWf-JD5YB-22" value="\(e_{7,9}\)" style="edgeLabel;html=1;align=center;verticalAlign=middle;resizable=0;points=[];fontFamily=HarmonyOS Sans SC;fontSize=20;fontColor=default;labelBackgroundColor=default;" parent="2VlFaTyOnXEaWf-JD5YB-21" vertex="1" connectable="0">
          <mxGeometry x="-0.045" y="1" relative="1" as="geometry">
            <mxPoint as="offset" />
          </mxGeometry>
        </mxCell>
        <mxCell id="2VlFaTyOnXEaWf-JD5YB-23" value="" style="ellipse;whiteSpace=wrap;html=1;aspect=fixed;fontFamily=HarmonyOS Sans SC;fontSize=20;comic=0;fillStyle=hatch;fillColor=#000000;" parent="2VlFaTyOnXEaWf-JD5YB-1" vertex="1">
          <mxGeometry x="660" y="-80" width="80" height="80" as="geometry" />
        </mxCell>
        <mxCell id="2VlFaTyOnXEaWf-JD5YB-24" style="edgeStyle=none;shape=connector;rounded=0;orthogonalLoop=1;jettySize=auto;html=1;strokeColor=default;align=center;verticalAlign=middle;fontFamily=HarmonyOS Sans SC;fontSize=20;fontColor=default;labelBackgroundColor=default;endArrow=classic;" parent="2VlFaTyOnXEaWf-JD5YB-1" source="2VlFaTyOnXEaWf-JD5YB-26" target="2VlFaTyOnXEaWf-JD5YB-32" edge="1">
          <mxGeometry relative="1" as="geometry" />
        </mxCell>
        <mxCell id="2VlFaTyOnXEaWf-JD5YB-25" value="\(e_{8,9}\)" style="edgeLabel;html=1;align=center;verticalAlign=middle;resizable=0;points=[];fontFamily=HarmonyOS Sans SC;fontSize=20;fontColor=default;labelBackgroundColor=default;" parent="2VlFaTyOnXEaWf-JD5YB-24" vertex="1" connectable="0">
          <mxGeometry x="-0.0045" y="1" relative="1" as="geometry">
            <mxPoint as="offset" />
          </mxGeometry>
        </mxCell>
        <mxCell id="2VlFaTyOnXEaWf-JD5YB-26" value="" style="ellipse;whiteSpace=wrap;html=1;aspect=fixed;fontFamily=HarmonyOS Sans SC;fontSize=20;fillStyle=dots;fillColor=#000000;" parent="2VlFaTyOnXEaWf-JD5YB-1" vertex="1">
          <mxGeometry x="660" y="80" width="80" height="80" as="geometry" />
        </mxCell>
        <mxCell id="2VlFaTyOnXEaWf-JD5YB-27" style="edgeStyle=none;shape=connector;rounded=0;orthogonalLoop=1;jettySize=auto;html=1;strokeColor=default;align=center;verticalAlign=middle;fontFamily=HarmonyOS Sans SC;fontSize=20;fontColor=default;labelBackgroundColor=default;endArrow=classic;" parent="2VlFaTyOnXEaWf-JD5YB-1" source="2VlFaTyOnXEaWf-JD5YB-29" target="2VlFaTyOnXEaWf-JD5YB-26" edge="1">
          <mxGeometry relative="1" as="geometry" />
        </mxCell>
        <mxCell id="2VlFaTyOnXEaWf-JD5YB-28" value="\(e_{6,8}\)" style="edgeLabel;html=1;align=center;verticalAlign=middle;resizable=0;points=[];fontFamily=HarmonyOS Sans SC;fontSize=20;fontColor=default;labelBackgroundColor=default;" parent="2VlFaTyOnXEaWf-JD5YB-27" vertex="1" connectable="0">
          <mxGeometry x="-0.0054" relative="1" as="geometry">
            <mxPoint x="1" as="offset" />
          </mxGeometry>
        </mxCell>
        <mxCell id="2VlFaTyOnXEaWf-JD5YB-29" value="" style="ellipse;whiteSpace=wrap;html=1;aspect=fixed;fontFamily=HarmonyOS Sans SC;fontSize=20;fillStyle=dots;fillColor=#000000;" parent="2VlFaTyOnXEaWf-JD5YB-1" vertex="1">
          <mxGeometry x="460" y="80" width="80" height="80" as="geometry" />
        </mxCell>
        <mxCell id="2VlFaTyOnXEaWf-JD5YB-30" style="edgeStyle=none;shape=connector;rounded=0;orthogonalLoop=1;jettySize=auto;html=1;strokeColor=default;align=center;verticalAlign=middle;fontFamily=HarmonyOS Sans SC;fontSize=20;fontColor=default;labelBackgroundColor=default;endArrow=classic;" parent="2VlFaTyOnXEaWf-JD5YB-1" source="2VlFaTyOnXEaWf-JD5YB-32" target="2VlFaTyOnXEaWf-JD5YB-33" edge="1">
          <mxGeometry relative="1" as="geometry" />
        </mxCell>
        <mxCell id="2VlFaTyOnXEaWf-JD5YB-31" value="\(e_{9,10}\)" style="edgeLabel;html=1;align=center;verticalAlign=middle;resizable=0;points=[];fontFamily=HarmonyOS Sans SC;fontSize=20;fontColor=default;labelBackgroundColor=default;" parent="2VlFaTyOnXEaWf-JD5YB-30" vertex="1" connectable="0">
          <mxGeometry x="-0.0393" relative="1" as="geometry">
            <mxPoint as="offset" />
          </mxGeometry>
        </mxCell>
        <mxCell id="2VlFaTyOnXEaWf-JD5YB-32" value="" style="ellipse;whiteSpace=wrap;html=1;aspect=fixed;fontFamily=HarmonyOS Sans SC;fontSize=20;fillStyle=zigzag-line;fillColor=#000000;" parent="2VlFaTyOnXEaWf-JD5YB-1" vertex="1">
          <mxGeometry x="800" width="80" height="80" as="geometry" />
        </mxCell>
        <mxCell id="2VlFaTyOnXEaWf-JD5YB-33" value="" style="ellipse;whiteSpace=wrap;html=1;aspect=fixed;fontFamily=HarmonyOS Sans SC;fontSize=20;fillStyle=zigzag-line;fillColor=#000000;" parent="2VlFaTyOnXEaWf-JD5YB-1" vertex="1">
          <mxGeometry x="960" width="80" height="80" as="geometry" />
        </mxCell>
        <mxCell id="2VlFaTyOnXEaWf-JD5YB-34" value="" style="ellipse;whiteSpace=wrap;html=1;aspect=fixed;fontFamily=HarmonyOS Sans SC;fontSize=20;comic=0;fillStyle=hatch;fillColor=#000000;" parent="2VlFaTyOnXEaWf-JD5YB-1" vertex="1">
          <mxGeometry y="120" width="40" height="40" as="geometry" />
        </mxCell>
        <mxCell id="2VlFaTyOnXEaWf-JD5YB-35" value="" style="ellipse;whiteSpace=wrap;html=1;aspect=fixed;fontFamily=HarmonyOS Sans SC;fontSize=20;fillStyle=dots;fillColor=#000000;" parent="2VlFaTyOnXEaWf-JD5YB-1" vertex="1">
          <mxGeometry x="140" y="120" width="40" height="40" as="geometry" />
        </mxCell>
        <mxCell id="XdbUNwIJeglGOUodkMSb-0" value="" style="ellipse;whiteSpace=wrap;html=1;aspect=fixed;fontFamily=HarmonyOS Sans SC;fontSize=20;fillStyle=zigzag-line;fillColor=#000000;" parent="2VlFaTyOnXEaWf-JD5YB-1" vertex="1">
          <mxGeometry x="280" y="120" width="40" height="40" as="geometry" />
        </mxCell>
        <mxCell id="2VlFaTyOnXEaWf-JD5YB-36" value="Text" style="" parent="2VlFaTyOnXEaWf-JD5YB-0" />
        <mxCell id="2VlFaTyOnXEaWf-JD5YB-37" value="\(f_1\)&lt;div&gt;\(0\)&lt;/div&gt;" style="text;html=1;align=center;verticalAlign=middle;whiteSpace=wrap;rounded=0;fontFamily=HarmonyOS Sans SC;fontSize=20;fillColor=default;" parent="2VlFaTyOnXEaWf-JD5YB-36" vertex="1">
          <mxGeometry x="25" y="10" width="30" height="60" as="geometry" />
        </mxCell>
        <mxCell id="2VlFaTyOnXEaWf-JD5YB-38" value="\(f_2\)&lt;div&gt;\(1\)&lt;/div&gt;" style="text;html=1;align=center;verticalAlign=middle;whiteSpace=wrap;rounded=0;fontFamily=HarmonyOS Sans SC;fontSize=20;fillColor=default;" parent="2VlFaTyOnXEaWf-JD5YB-36" vertex="1">
          <mxGeometry x="185" y="10" width="30" height="60" as="geometry" />
        </mxCell>
        <mxCell id="2VlFaTyOnXEaWf-JD5YB-39" value="\(f_3\)&lt;div&gt;\(2\)&lt;/div&gt;" style="text;html=1;align=center;verticalAlign=middle;whiteSpace=wrap;rounded=0;fontFamily=HarmonyOS Sans SC;fontSize=20;fillColor=default;" parent="2VlFaTyOnXEaWf-JD5YB-36" vertex="1">
          <mxGeometry x="345" y="10" width="30" height="60" as="geometry" />
        </mxCell>
        <mxCell id="2VlFaTyOnXEaWf-JD5YB-40" value="\(f_4\)&lt;div&gt;\(3\)&lt;/div&gt;" style="text;html=1;align=center;verticalAlign=middle;whiteSpace=wrap;rounded=0;fontFamily=HarmonyOS Sans SC;fontSize=20;fillColor=default;" parent="2VlFaTyOnXEaWf-JD5YB-36" vertex="1">
          <mxGeometry x="485" y="-70" width="30" height="60" as="geometry" />
        </mxCell>
        <mxCell id="2VlFaTyOnXEaWf-JD5YB-41" value="\(f_6\)&lt;div&gt;\(4\)&lt;/div&gt;" style="text;html=1;align=center;verticalAlign=middle;whiteSpace=wrap;rounded=0;fontFamily=HarmonyOS Sans SC;fontSize=20;fillColor=default;" parent="2VlFaTyOnXEaWf-JD5YB-36" vertex="1">
          <mxGeometry x="485" y="90" width="30" height="60" as="geometry" />
        </mxCell>
        <mxCell id="2VlFaTyOnXEaWf-JD5YB-42" value="\(f_5\)&lt;div&gt;\(5\)&lt;/div&gt;" style="text;html=1;align=center;verticalAlign=middle;whiteSpace=wrap;rounded=0;fontFamily=HarmonyOS Sans SC;fontSize=20;fillColor=default;" parent="2VlFaTyOnXEaWf-JD5YB-36" vertex="1">
          <mxGeometry x="585" y="10" width="30" height="60" as="geometry" />
        </mxCell>
        <mxCell id="2VlFaTyOnXEaWf-JD5YB-43" value="\(f_7\)&lt;div&gt;\(7\)&lt;/div&gt;" style="text;html=1;align=center;verticalAlign=middle;whiteSpace=wrap;rounded=0;fontFamily=HarmonyOS Sans SC;fontSize=20;fillColor=default;" parent="2VlFaTyOnXEaWf-JD5YB-36" vertex="1">
          <mxGeometry x="685" y="-70" width="30" height="60" as="geometry" />
        </mxCell>
        <mxCell id="2VlFaTyOnXEaWf-JD5YB-44" value="\(f_8\)&lt;div&gt;\(6\)&lt;/div&gt;" style="text;html=1;align=center;verticalAlign=middle;whiteSpace=wrap;rounded=0;fontFamily=HarmonyOS Sans SC;fontSize=20;fillColor=default;" parent="2VlFaTyOnXEaWf-JD5YB-36" vertex="1">
          <mxGeometry x="685" y="90" width="30" height="60" as="geometry" />
        </mxCell>
        <mxCell id="2VlFaTyOnXEaWf-JD5YB-45" value="\(f_9\)&lt;div&gt;\(8\)&lt;/div&gt;" style="text;html=1;align=center;verticalAlign=middle;whiteSpace=wrap;rounded=0;fontFamily=HarmonyOS Sans SC;fontSize=20;fillColor=default;" parent="2VlFaTyOnXEaWf-JD5YB-36" vertex="1">
          <mxGeometry x="825" y="10" width="30" height="60" as="geometry" />
        </mxCell>
        <mxCell id="2VlFaTyOnXEaWf-JD5YB-46" value="\(f_{10}\)&lt;div&gt;\(10\)&lt;/div&gt;" style="text;html=1;align=center;verticalAlign=middle;whiteSpace=wrap;rounded=0;fontFamily=HarmonyOS Sans SC;fontSize=20;fillColor=default;" parent="2VlFaTyOnXEaWf-JD5YB-36" vertex="1">
          <mxGeometry x="985" y="10" width="30" height="60" as="geometry" />
        </mxCell>
        <mxCell id="2VlFaTyOnXEaWf-JD5YB-47" value="Group 1" style="text;html=1;align=center;verticalAlign=middle;whiteSpace=wrap;rounded=0;fontFamily=HarmonyOS Sans SC;fontSize=20;fontColor=default;labelBackgroundColor=default;" parent="2VlFaTyOnXEaWf-JD5YB-36" vertex="1">
          <mxGeometry x="40" y="120" width="90" height="40" as="geometry" />
        </mxCell>
        <mxCell id="2VlFaTyOnXEaWf-JD5YB-48" value="Group 2" style="text;html=1;align=center;verticalAlign=middle;whiteSpace=wrap;rounded=0;fontFamily=HarmonyOS Sans SC;fontSize=20;fontColor=default;labelBackgroundColor=default;" parent="2VlFaTyOnXEaWf-JD5YB-36" vertex="1">
          <mxGeometry x="180" y="120" width="90" height="40" as="geometry" />
        </mxCell>
        <mxCell id="XdbUNwIJeglGOUodkMSb-1" value="Group 3" style="text;html=1;align=center;verticalAlign=middle;whiteSpace=wrap;rounded=0;fontFamily=HarmonyOS Sans SC;fontSize=20;fontColor=default;labelBackgroundColor=default;" parent="2VlFaTyOnXEaWf-JD5YB-36" vertex="1">
          <mxGeometry x="320" y="120" width="90" height="40" as="geometry" />
        </mxCell>
      </root>
    </mxGraphModel>
  </diagram>
</mxfile>
